G04 #@! TF.FileFunction,Copper,L1,Top,Signal*
%FSLAX46Y46*%
G04 Gerber Fmt 4.6, Leading zero omitted, Abs format (unit mm)*
G04 Created by KiCad (PCBNEW 4.0.4+e1-6308~48~ubuntu16.04.1-stable) date Fri Oct 14 16:45:37 2016*
%MOMM*%
%LPD*%
G01*
G04 APERTURE LIST*
%ADD10C,0.100000*%
%ADD11R,1.300000X1.300000*%
%ADD12C,1.300000*%
%ADD13R,1.400000X1.400000*%
%ADD14C,1.400000*%
%ADD15R,2.032000X1.727200*%
%ADD16O,2.032000X1.727200*%
%ADD17R,2.032000X2.032000*%
%ADD18O,2.032000X2.032000*%
%ADD19R,0.400000X0.600000*%
%ADD20C,1.998980*%
%ADD21O,1.524000X2.524000*%
%ADD22R,0.457200X0.711200*%
%ADD23C,1.699260*%
%ADD24C,7.000000*%
%ADD25C,1.000000*%
%ADD26C,0.600000*%
%ADD27C,0.400000*%
%ADD28C,0.250000*%
%ADD29C,0.254000*%
G04 APERTURE END LIST*
D10*
D11*
X150950000Y-126060000D03*
D12*
X148950000Y-126060000D03*
D13*
X161800000Y-125260000D03*
D14*
X161800000Y-130260000D03*
D15*
X187000000Y-110000000D03*
D16*
X187000000Y-112540000D03*
X187000000Y-115080000D03*
X187000000Y-117620000D03*
X187000000Y-120160000D03*
X187000000Y-122700000D03*
D17*
X151380000Y-131320000D03*
D18*
X148840000Y-131320000D03*
D19*
X179550000Y-110000000D03*
X180450000Y-110000000D03*
X179550000Y-113000000D03*
X180450000Y-113000000D03*
D20*
X169350000Y-129170000D03*
X179510000Y-129170000D03*
X179490000Y-124990000D03*
X169330000Y-124990000D03*
D21*
X145340000Y-119280000D03*
X147880000Y-119280000D03*
X150420000Y-119280000D03*
X152960000Y-119280000D03*
X155500000Y-119280000D03*
X155500000Y-104040000D03*
X152960000Y-104040000D03*
X150420000Y-104040000D03*
X147880000Y-104040000D03*
X145340000Y-104040000D03*
D22*
X156079600Y-130996000D03*
X157400400Y-130996000D03*
X156740000Y-128964000D03*
D23*
X168537341Y-116539200D03*
X168537341Y-113999200D03*
X171077341Y-116539200D03*
X173617341Y-113999200D03*
X171077341Y-113999200D03*
X173617341Y-111459200D03*
X171077341Y-111459200D03*
X173617341Y-108919200D03*
X171077341Y-106379200D03*
X171077341Y-108919200D03*
X168537341Y-106379200D03*
X168537341Y-108919200D03*
X165997341Y-106379200D03*
X163457341Y-108919200D03*
X165997341Y-108919200D03*
X163457341Y-111459200D03*
X165997341Y-111459200D03*
X163457341Y-113999200D03*
X165997341Y-116539200D03*
X165997341Y-113999200D03*
D24*
X137000000Y-103000000D03*
X186000000Y-103000000D03*
X137000000Y-131000000D03*
X186000000Y-131000000D03*
D25*
X158500000Y-130979472D03*
X157880000Y-128964000D03*
X168490000Y-118620000D03*
D26*
X177890000Y-113700000D03*
X159218370Y-112181630D03*
X159903371Y-113866629D03*
X158990000Y-109180000D03*
X156720000Y-109760000D03*
D27*
X156836074Y-131879474D02*
X156079600Y-131123000D01*
X166640526Y-131879474D02*
X156836074Y-131879474D01*
X156079600Y-131123000D02*
X156079600Y-130996000D01*
X169350000Y-129170000D02*
X166640526Y-131879474D01*
X156079600Y-130996000D02*
X151704000Y-130996000D01*
X151704000Y-130996000D02*
X151380000Y-131320000D01*
X151380000Y-131320000D02*
X151380000Y-126490000D01*
X151380000Y-126490000D02*
X150950000Y-126060000D01*
X158500000Y-130979472D02*
X161080528Y-130979472D01*
X157400400Y-130996000D02*
X158483472Y-130996000D01*
X158483472Y-130996000D02*
X158500000Y-130979472D01*
X161080528Y-130979472D02*
X161800000Y-130260000D01*
X157880000Y-128964000D02*
X159196000Y-128964000D01*
X156740000Y-128964000D02*
X157880000Y-128964000D01*
X168537341Y-116539200D02*
X168537341Y-118572659D01*
X168537341Y-118572659D02*
X168490000Y-118620000D01*
X159196000Y-128964000D02*
X161800000Y-126360000D01*
X161800000Y-126360000D02*
X161800000Y-125260000D01*
D28*
X187000000Y-110000000D02*
X185734000Y-110000000D01*
X185734000Y-110000000D02*
X180450000Y-110000000D01*
X187000000Y-112540000D02*
X180910000Y-112540000D01*
X180910000Y-112540000D02*
X180450000Y-113000000D01*
X171077341Y-113999200D02*
X178516252Y-121438111D01*
X178516252Y-121438111D02*
X180489489Y-121438111D01*
X179490000Y-124990000D02*
X180489489Y-123990511D01*
X180489489Y-123990511D02*
X180489489Y-121438111D01*
X180489489Y-121438111D02*
X186847600Y-115080000D01*
X186847600Y-115080000D02*
X187000000Y-115080000D01*
X179510000Y-129170000D02*
X179510000Y-125010000D01*
X179510000Y-125010000D02*
X179490000Y-124990000D01*
X177890000Y-113700000D02*
X177890000Y-111210000D01*
X177890000Y-111210000D02*
X179100000Y-110000000D01*
X179100000Y-110000000D02*
X179550000Y-110000000D01*
X178170000Y-114930000D02*
X174548141Y-114930000D01*
X174548141Y-114930000D02*
X173617341Y-113999200D01*
X179550000Y-113000000D02*
X179550000Y-113550000D01*
X179550000Y-113550000D02*
X178170000Y-114930000D01*
X145340000Y-119280000D02*
X145340000Y-118780000D01*
X145340000Y-118780000D02*
X151438371Y-112681629D01*
X151438371Y-112681629D02*
X158718371Y-112681629D01*
X158718371Y-112681629D02*
X159218370Y-112181630D01*
X152793371Y-113866629D02*
X159196265Y-113866629D01*
X159196265Y-113866629D02*
X159903371Y-113866629D01*
X147880000Y-119280000D02*
X147880000Y-118780000D01*
X147880000Y-118780000D02*
X152793371Y-113866629D01*
X152960000Y-119280000D02*
X152960000Y-119780000D01*
X152960000Y-119780000D02*
X154047010Y-120867010D01*
X154047010Y-120867010D02*
X156589531Y-120867010D01*
X156589531Y-120867010D02*
X162607712Y-114848829D01*
X162607712Y-114848829D02*
X163457341Y-113999200D01*
X155500000Y-119280000D02*
X156512000Y-119280000D01*
X163440800Y-106379200D02*
X164795783Y-106379200D01*
X160728372Y-115063628D02*
X160728372Y-109091628D01*
X156512000Y-119280000D02*
X160728372Y-115063628D01*
X160728372Y-109091628D02*
X163440800Y-106379200D01*
X164795783Y-106379200D02*
X165997341Y-106379200D01*
X158990000Y-109180000D02*
X158490001Y-108680001D01*
X157100001Y-108680001D02*
X152960000Y-104540000D01*
X158490001Y-108680001D02*
X157100001Y-108680001D01*
X152960000Y-104540000D02*
X152960000Y-104040000D01*
X156720000Y-109760000D02*
X150560000Y-109760000D01*
X150560000Y-109760000D02*
X145340000Y-104540000D01*
X145340000Y-104540000D02*
X145340000Y-104040000D01*
D29*
G36*
X182496562Y-100654653D02*
X181865720Y-102173889D01*
X181864284Y-103818894D01*
X182492474Y-105339229D01*
X183654653Y-106503438D01*
X185173889Y-107134280D01*
X186818894Y-107135716D01*
X188339229Y-106507526D01*
X188873000Y-105974686D01*
X188873000Y-128025137D01*
X188345347Y-127496562D01*
X186826111Y-126865720D01*
X185181106Y-126864284D01*
X183660771Y-127492474D01*
X182496562Y-128654653D01*
X181865720Y-130173889D01*
X181864284Y-131818894D01*
X182492474Y-133339229D01*
X183025314Y-133873000D01*
X139974863Y-133873000D01*
X140503438Y-133345347D01*
X141134280Y-131826111D01*
X141134387Y-131702946D01*
X147234017Y-131702946D01*
X147502812Y-132288379D01*
X147975182Y-132726385D01*
X148457056Y-132925975D01*
X148713000Y-132806836D01*
X148713000Y-131447000D01*
X147352633Y-131447000D01*
X147234017Y-131702946D01*
X141134387Y-131702946D01*
X141135055Y-130937054D01*
X147234017Y-130937054D01*
X147352633Y-131193000D01*
X148713000Y-131193000D01*
X148713000Y-129833164D01*
X148457056Y-129714025D01*
X147975182Y-129913615D01*
X147502812Y-130351621D01*
X147234017Y-130937054D01*
X141135055Y-130937054D01*
X141135716Y-130181106D01*
X140507526Y-128660771D01*
X139345347Y-127496562D01*
X137826111Y-126865720D01*
X136181106Y-126864284D01*
X134660771Y-127492474D01*
X134127000Y-128025314D01*
X134127000Y-125879078D01*
X147652378Y-125879078D01*
X147681917Y-126389428D01*
X147820389Y-126723729D01*
X148050984Y-126779410D01*
X148770395Y-126060000D01*
X148050984Y-125340590D01*
X147820389Y-125396271D01*
X147652378Y-125879078D01*
X134127000Y-125879078D01*
X134127000Y-125160984D01*
X148230590Y-125160984D01*
X148950000Y-125880395D01*
X148964142Y-125866252D01*
X149143748Y-126045858D01*
X149129605Y-126060000D01*
X149143748Y-126074142D01*
X148964142Y-126253748D01*
X148950000Y-126239605D01*
X148230590Y-126959016D01*
X148286271Y-127189611D01*
X148769078Y-127357622D01*
X149279428Y-127328083D01*
X149613729Y-127189611D01*
X149669410Y-126959018D01*
X149771072Y-127060680D01*
X149835910Y-127161441D01*
X150048110Y-127306431D01*
X150300000Y-127357440D01*
X150545000Y-127357440D01*
X150545000Y-129656560D01*
X150364000Y-129656560D01*
X150128683Y-129700838D01*
X149912559Y-129839910D01*
X149801160Y-130002948D01*
X149704818Y-129913615D01*
X149222944Y-129714025D01*
X148967000Y-129833164D01*
X148967000Y-131193000D01*
X148987000Y-131193000D01*
X148987000Y-131447000D01*
X148967000Y-131447000D01*
X148967000Y-132806836D01*
X149222944Y-132925975D01*
X149704818Y-132726385D01*
X149802398Y-132635903D01*
X149899910Y-132787441D01*
X150112110Y-132932431D01*
X150364000Y-132983440D01*
X152396000Y-132983440D01*
X152631317Y-132939162D01*
X152847441Y-132800090D01*
X152992431Y-132587890D01*
X153043440Y-132336000D01*
X153043440Y-131831000D01*
X155427829Y-131831000D01*
X155599110Y-131948031D01*
X155755416Y-131979684D01*
X156245640Y-132469908D01*
X156516534Y-132650914D01*
X156836074Y-132714474D01*
X166640526Y-132714474D01*
X166960067Y-132650913D01*
X167230960Y-132469908D01*
X168933863Y-130767005D01*
X169023453Y-130804206D01*
X169673694Y-130804774D01*
X170274655Y-130556462D01*
X170734846Y-130097073D01*
X170984206Y-129496547D01*
X170984774Y-128846306D01*
X170736462Y-128245345D01*
X170277073Y-127785154D01*
X169676547Y-127535794D01*
X169026306Y-127535226D01*
X168425345Y-127783538D01*
X167965154Y-128242927D01*
X167715794Y-128843453D01*
X167715226Y-129493694D01*
X167753298Y-129585834D01*
X166294658Y-131044474D01*
X162764082Y-131044474D01*
X162735277Y-131015669D01*
X162971042Y-130953831D01*
X163147419Y-130452878D01*
X163118664Y-129922560D01*
X162971042Y-129566169D01*
X162735275Y-129504331D01*
X161979605Y-130260000D01*
X161993748Y-130274142D01*
X161814142Y-130453748D01*
X161800000Y-130439605D01*
X161785858Y-130453748D01*
X161606252Y-130274142D01*
X161620395Y-130260000D01*
X160864725Y-129504331D01*
X160628958Y-129566169D01*
X160452581Y-130067122D01*
X160481336Y-130597440D01*
X160628958Y-130953831D01*
X160864723Y-131015669D01*
X160835918Y-131044474D01*
X157253400Y-131044474D01*
X157253400Y-130869000D01*
X157286100Y-130869000D01*
X157286100Y-130164150D01*
X157127350Y-130005400D01*
X157045491Y-130005400D01*
X156812102Y-130102073D01*
X156744324Y-130169851D01*
X156560090Y-130043969D01*
X156308200Y-129992960D01*
X155851000Y-129992960D01*
X155615683Y-130037238D01*
X155423351Y-130161000D01*
X153016533Y-130161000D01*
X152999162Y-130068683D01*
X152860090Y-129852559D01*
X152647890Y-129707569D01*
X152396000Y-129656560D01*
X152215000Y-129656560D01*
X152215000Y-128608400D01*
X155863960Y-128608400D01*
X155863960Y-129319600D01*
X155908238Y-129554917D01*
X156047310Y-129771041D01*
X156259510Y-129916031D01*
X156511400Y-129967040D01*
X156968600Y-129967040D01*
X157203917Y-129922762D01*
X157221842Y-129911227D01*
X157236235Y-129925645D01*
X157601523Y-130077327D01*
X157514700Y-130164150D01*
X157514700Y-130869000D01*
X158105250Y-130869000D01*
X158264000Y-130710250D01*
X158264000Y-130514090D01*
X158167327Y-130280701D01*
X157988698Y-130102073D01*
X157981495Y-130099089D01*
X158104775Y-130099197D01*
X158522086Y-129926767D01*
X158650076Y-129799000D01*
X159196000Y-129799000D01*
X159515541Y-129735439D01*
X159786434Y-129554434D01*
X160016143Y-129324725D01*
X161044331Y-129324725D01*
X161800000Y-130080395D01*
X162555669Y-129324725D01*
X162493831Y-129088958D01*
X161992878Y-128912581D01*
X161462560Y-128941336D01*
X161106169Y-129088958D01*
X161044331Y-129324725D01*
X160016143Y-129324725D01*
X162390434Y-126950434D01*
X162447038Y-126865720D01*
X162571439Y-126679541D01*
X162589116Y-126590672D01*
X162735317Y-126563162D01*
X162951441Y-126424090D01*
X163096431Y-126211890D01*
X163110551Y-126142163D01*
X168357443Y-126142163D01*
X168456042Y-126408965D01*
X169065582Y-126635401D01*
X169715377Y-126611341D01*
X170203958Y-126408965D01*
X170302557Y-126142163D01*
X169330000Y-125169605D01*
X168357443Y-126142163D01*
X163110551Y-126142163D01*
X163147440Y-125960000D01*
X163147440Y-124725582D01*
X167684599Y-124725582D01*
X167708659Y-125375377D01*
X167911035Y-125863958D01*
X168177837Y-125962557D01*
X169150395Y-124990000D01*
X169509605Y-124990000D01*
X170482163Y-125962557D01*
X170748965Y-125863958D01*
X170975401Y-125254418D01*
X170951341Y-124604623D01*
X170748965Y-124116042D01*
X170482163Y-124017443D01*
X169509605Y-124990000D01*
X169150395Y-124990000D01*
X168177837Y-124017443D01*
X167911035Y-124116042D01*
X167684599Y-124725582D01*
X163147440Y-124725582D01*
X163147440Y-124560000D01*
X163103162Y-124324683D01*
X162964090Y-124108559D01*
X162751890Y-123963569D01*
X162500000Y-123912560D01*
X161100000Y-123912560D01*
X160864683Y-123956838D01*
X160648559Y-124095910D01*
X160503569Y-124308110D01*
X160452560Y-124560000D01*
X160452560Y-125960000D01*
X160496838Y-126195317D01*
X160609200Y-126369932D01*
X158850132Y-128129000D01*
X158650189Y-128129000D01*
X158523765Y-128002355D01*
X158106756Y-127829197D01*
X157655225Y-127828803D01*
X157237914Y-128001233D01*
X157224449Y-128014674D01*
X157220490Y-128011969D01*
X156968600Y-127960960D01*
X156511400Y-127960960D01*
X156276083Y-128005238D01*
X156059959Y-128144310D01*
X155914969Y-128356510D01*
X155863960Y-128608400D01*
X152215000Y-128608400D01*
X152215000Y-126870194D01*
X152247440Y-126710000D01*
X152247440Y-125410000D01*
X152203162Y-125174683D01*
X152064090Y-124958559D01*
X151851890Y-124813569D01*
X151600000Y-124762560D01*
X150300000Y-124762560D01*
X150064683Y-124806838D01*
X149848559Y-124945910D01*
X149771063Y-125059329D01*
X149669410Y-125160982D01*
X149613729Y-124930389D01*
X149130922Y-124762378D01*
X148620572Y-124791917D01*
X148286271Y-124930389D01*
X148230590Y-125160984D01*
X134127000Y-125160984D01*
X134127000Y-123837837D01*
X168357443Y-123837837D01*
X169330000Y-124810395D01*
X170302557Y-123837837D01*
X170203958Y-123571035D01*
X169594418Y-123344599D01*
X168944623Y-123368659D01*
X168456042Y-123571035D01*
X168357443Y-123837837D01*
X134127000Y-123837837D01*
X134127000Y-118742836D01*
X143943000Y-118742836D01*
X143943000Y-119817164D01*
X144049340Y-120351773D01*
X144352172Y-120804992D01*
X144805391Y-121107824D01*
X145340000Y-121214164D01*
X145874609Y-121107824D01*
X146327828Y-120804992D01*
X146610000Y-120382693D01*
X146892172Y-120804992D01*
X147345391Y-121107824D01*
X147880000Y-121214164D01*
X148414609Y-121107824D01*
X148867828Y-120804992D01*
X149159298Y-120368778D01*
X149177941Y-120431941D01*
X149521974Y-120857630D01*
X150002723Y-121119260D01*
X150076930Y-121134220D01*
X150293000Y-121011720D01*
X150293000Y-119407000D01*
X150273000Y-119407000D01*
X150273000Y-119153000D01*
X150293000Y-119153000D01*
X150293000Y-117548280D01*
X150225047Y-117509755D01*
X153108173Y-114626629D01*
X159340908Y-114626629D01*
X159373044Y-114658821D01*
X159716572Y-114801467D01*
X159915558Y-114801640D01*
X156677831Y-118039367D01*
X156487828Y-117755008D01*
X156034609Y-117452176D01*
X155500000Y-117345836D01*
X154965391Y-117452176D01*
X154512172Y-117755008D01*
X154230000Y-118177307D01*
X153947828Y-117755008D01*
X153494609Y-117452176D01*
X152960000Y-117345836D01*
X152425391Y-117452176D01*
X151972172Y-117755008D01*
X151680702Y-118191222D01*
X151662059Y-118128059D01*
X151318026Y-117702370D01*
X150837277Y-117440740D01*
X150763070Y-117425780D01*
X150547000Y-117548280D01*
X150547000Y-119153000D01*
X150567000Y-119153000D01*
X150567000Y-119407000D01*
X150547000Y-119407000D01*
X150547000Y-121011720D01*
X150763070Y-121134220D01*
X150837277Y-121119260D01*
X151318026Y-120857630D01*
X151662059Y-120431941D01*
X151680702Y-120368778D01*
X151972172Y-120804992D01*
X152425391Y-121107824D01*
X152960000Y-121214164D01*
X153259740Y-121154542D01*
X153509609Y-121404411D01*
X153756170Y-121569158D01*
X154047010Y-121627010D01*
X156589531Y-121627010D01*
X156880370Y-121569158D01*
X157126932Y-121404411D01*
X163080915Y-115450428D01*
X163160734Y-115483572D01*
X163751357Y-115484088D01*
X164297218Y-115258542D01*
X164715215Y-114841274D01*
X164727090Y-114812676D01*
X164737999Y-114839077D01*
X165155267Y-115257074D01*
X165183865Y-115268949D01*
X165157464Y-115279858D01*
X164739467Y-115697126D01*
X164512969Y-116242593D01*
X164512453Y-116833216D01*
X164737999Y-117379077D01*
X165155267Y-117797074D01*
X165700734Y-118023572D01*
X166291357Y-118024088D01*
X166837218Y-117798542D01*
X167255215Y-117381274D01*
X167267090Y-117352676D01*
X167277999Y-117379077D01*
X167695267Y-117797074D01*
X167702341Y-117800011D01*
X167702341Y-117802552D01*
X167528355Y-117976235D01*
X167355197Y-118393244D01*
X167354803Y-118844775D01*
X167527233Y-119262086D01*
X167846235Y-119581645D01*
X168263244Y-119754803D01*
X168714775Y-119755197D01*
X169132086Y-119582767D01*
X169451645Y-119263765D01*
X169624803Y-118846756D01*
X169625197Y-118395225D01*
X169452767Y-117977914D01*
X169372341Y-117897348D01*
X169372341Y-117800557D01*
X169377218Y-117798542D01*
X169795215Y-117381274D01*
X169807090Y-117352676D01*
X169817999Y-117379077D01*
X170235267Y-117797074D01*
X170780734Y-118023572D01*
X171371357Y-118024088D01*
X171917218Y-117798542D01*
X172335215Y-117381274D01*
X172561713Y-116835807D01*
X172561955Y-116558616D01*
X177978851Y-121975512D01*
X178225413Y-122140259D01*
X178516252Y-122198111D01*
X179729489Y-122198111D01*
X179729489Y-123355718D01*
X179166306Y-123355226D01*
X178565345Y-123603538D01*
X178105154Y-124062927D01*
X177855794Y-124663453D01*
X177855226Y-125313694D01*
X178103538Y-125914655D01*
X178562927Y-126374846D01*
X178750000Y-126452525D01*
X178750000Y-127715504D01*
X178585345Y-127783538D01*
X178125154Y-128242927D01*
X177875794Y-128843453D01*
X177875226Y-129493694D01*
X178123538Y-130094655D01*
X178582927Y-130554846D01*
X179183453Y-130804206D01*
X179833694Y-130804774D01*
X180434655Y-130556462D01*
X180894846Y-130097073D01*
X181144206Y-129496547D01*
X181144774Y-128846306D01*
X180896462Y-128245345D01*
X180437073Y-127785154D01*
X180270000Y-127715779D01*
X180270000Y-126436232D01*
X180414655Y-126376462D01*
X180874846Y-125917073D01*
X181124206Y-125316547D01*
X181124774Y-124666306D01*
X181052039Y-124490274D01*
X181191637Y-124281350D01*
X181249489Y-123990511D01*
X181249489Y-123059026D01*
X185392642Y-123059026D01*
X185395291Y-123074791D01*
X185649268Y-123602036D01*
X186085680Y-123991954D01*
X186638087Y-124185184D01*
X186873000Y-124040924D01*
X186873000Y-122827000D01*
X187127000Y-122827000D01*
X187127000Y-124040924D01*
X187361913Y-124185184D01*
X187914320Y-123991954D01*
X188350732Y-123602036D01*
X188604709Y-123074791D01*
X188607358Y-123059026D01*
X188486217Y-122827000D01*
X187127000Y-122827000D01*
X186873000Y-122827000D01*
X185513783Y-122827000D01*
X185392642Y-123059026D01*
X181249489Y-123059026D01*
X181249489Y-121752913D01*
X185327563Y-117674839D01*
X185430729Y-118193489D01*
X185755585Y-118679670D01*
X186070366Y-118890000D01*
X185755585Y-119100330D01*
X185430729Y-119586511D01*
X185316655Y-120160000D01*
X185430729Y-120733489D01*
X185755585Y-121219670D01*
X186065069Y-121426461D01*
X185649268Y-121797964D01*
X185395291Y-122325209D01*
X185392642Y-122340974D01*
X185513783Y-122573000D01*
X186873000Y-122573000D01*
X186873000Y-122553000D01*
X187127000Y-122553000D01*
X187127000Y-122573000D01*
X188486217Y-122573000D01*
X188607358Y-122340974D01*
X188604709Y-122325209D01*
X188350732Y-121797964D01*
X187934931Y-121426461D01*
X188244415Y-121219670D01*
X188569271Y-120733489D01*
X188683345Y-120160000D01*
X188569271Y-119586511D01*
X188244415Y-119100330D01*
X187929634Y-118890000D01*
X188244415Y-118679670D01*
X188569271Y-118193489D01*
X188683345Y-117620000D01*
X188569271Y-117046511D01*
X188244415Y-116560330D01*
X187929634Y-116350000D01*
X188244415Y-116139670D01*
X188569271Y-115653489D01*
X188683345Y-115080000D01*
X188569271Y-114506511D01*
X188244415Y-114020330D01*
X187929634Y-113810000D01*
X188244415Y-113599670D01*
X188569271Y-113113489D01*
X188683345Y-112540000D01*
X188569271Y-111966511D01*
X188244415Y-111480330D01*
X188230087Y-111470757D01*
X188251317Y-111466762D01*
X188467441Y-111327690D01*
X188612431Y-111115490D01*
X188663440Y-110863600D01*
X188663440Y-109136400D01*
X188619162Y-108901083D01*
X188480090Y-108684959D01*
X188267890Y-108539969D01*
X188016000Y-108488960D01*
X185984000Y-108488960D01*
X185748683Y-108533238D01*
X185532559Y-108672310D01*
X185387569Y-108884510D01*
X185336560Y-109136400D01*
X185336560Y-109240000D01*
X181101563Y-109240000D01*
X180901890Y-109103569D01*
X180650000Y-109052560D01*
X180250000Y-109052560D01*
X180014683Y-109096838D01*
X180003021Y-109104342D01*
X180001890Y-109103569D01*
X179750000Y-109052560D01*
X179350000Y-109052560D01*
X179114683Y-109096838D01*
X178898559Y-109235910D01*
X178863640Y-109287015D01*
X178857414Y-109288254D01*
X178809160Y-109297852D01*
X178562599Y-109462599D01*
X177352599Y-110672599D01*
X177187852Y-110919161D01*
X177130000Y-111210000D01*
X177130000Y-113137537D01*
X177097808Y-113169673D01*
X176955162Y-113513201D01*
X176954838Y-113885167D01*
X177072528Y-114170000D01*
X175101823Y-114170000D01*
X175102229Y-113705184D01*
X174876683Y-113159323D01*
X174459415Y-112741326D01*
X174430817Y-112729451D01*
X174457218Y-112718542D01*
X174875215Y-112301274D01*
X175101713Y-111755807D01*
X175102229Y-111165184D01*
X174876683Y-110619323D01*
X174459415Y-110201326D01*
X174411630Y-110181484D01*
X174481426Y-109962890D01*
X173617341Y-109098805D01*
X172753256Y-109962890D01*
X172822921Y-110181075D01*
X172777464Y-110199858D01*
X172359467Y-110617126D01*
X172347592Y-110645724D01*
X172336683Y-110619323D01*
X171919415Y-110201326D01*
X171890817Y-110189451D01*
X171917218Y-110178542D01*
X172335215Y-109761274D01*
X172355057Y-109713489D01*
X172573651Y-109783285D01*
X173437736Y-108919200D01*
X173796946Y-108919200D01*
X174661031Y-109783285D01*
X174912294Y-109703058D01*
X175113691Y-109147833D01*
X175087282Y-108557801D01*
X174912294Y-108135342D01*
X174661031Y-108055115D01*
X173796946Y-108919200D01*
X173437736Y-108919200D01*
X172573651Y-108055115D01*
X172355466Y-108124780D01*
X172336683Y-108079323D01*
X172133226Y-107875510D01*
X172753256Y-107875510D01*
X173617341Y-108739595D01*
X174481426Y-107875510D01*
X174401199Y-107624247D01*
X173845974Y-107422850D01*
X173255942Y-107449259D01*
X172833483Y-107624247D01*
X172753256Y-107875510D01*
X172133226Y-107875510D01*
X171919415Y-107661326D01*
X171890817Y-107649451D01*
X171917218Y-107638542D01*
X172335215Y-107221274D01*
X172561713Y-106675807D01*
X172562229Y-106085184D01*
X172336683Y-105539323D01*
X171919415Y-105121326D01*
X171373948Y-104894828D01*
X170783325Y-104894312D01*
X170237464Y-105119858D01*
X169819467Y-105537126D01*
X169807592Y-105565724D01*
X169796683Y-105539323D01*
X169379415Y-105121326D01*
X168833948Y-104894828D01*
X168243325Y-104894312D01*
X167697464Y-105119858D01*
X167279467Y-105537126D01*
X167267592Y-105565724D01*
X167256683Y-105539323D01*
X166839415Y-105121326D01*
X166293948Y-104894828D01*
X165703325Y-104894312D01*
X165157464Y-105119858D01*
X164739467Y-105537126D01*
X164705387Y-105619200D01*
X163440800Y-105619200D01*
X163198214Y-105667454D01*
X163149960Y-105677052D01*
X162903399Y-105841799D01*
X160190971Y-108554227D01*
X160026224Y-108800789D01*
X159968372Y-109091628D01*
X159968372Y-111609497D01*
X159748697Y-111389438D01*
X159405169Y-111246792D01*
X159033203Y-111246468D01*
X158689427Y-111388513D01*
X158426178Y-111651303D01*
X158313928Y-111921629D01*
X151438371Y-111921629D01*
X151147532Y-111979481D01*
X150900970Y-112144228D01*
X145639740Y-117405458D01*
X145340000Y-117345836D01*
X144805391Y-117452176D01*
X144352172Y-117755008D01*
X144049340Y-118208227D01*
X143943000Y-118742836D01*
X134127000Y-118742836D01*
X134127000Y-105974863D01*
X134654653Y-106503438D01*
X136173889Y-107134280D01*
X137818894Y-107135716D01*
X139339229Y-106507526D01*
X140503438Y-105345347D01*
X141134280Y-103826111D01*
X141134562Y-103502836D01*
X143943000Y-103502836D01*
X143943000Y-104577164D01*
X144049340Y-105111773D01*
X144352172Y-105564992D01*
X144805391Y-105867824D01*
X145340000Y-105974164D01*
X145639740Y-105914542D01*
X150022599Y-110297401D01*
X150269161Y-110462148D01*
X150560000Y-110520000D01*
X156157537Y-110520000D01*
X156189673Y-110552192D01*
X156533201Y-110694838D01*
X156905167Y-110695162D01*
X157248943Y-110553117D01*
X157512192Y-110290327D01*
X157654838Y-109946799D01*
X157655162Y-109574833D01*
X157599451Y-109440001D01*
X158085759Y-109440001D01*
X158196883Y-109708943D01*
X158459673Y-109972192D01*
X158803201Y-110114838D01*
X159175167Y-110115162D01*
X159518943Y-109973117D01*
X159782192Y-109710327D01*
X159924838Y-109366799D01*
X159925162Y-108994833D01*
X159783117Y-108651057D01*
X159520327Y-108387808D01*
X159176799Y-108245162D01*
X159129923Y-108245121D01*
X159027402Y-108142600D01*
X158780840Y-107977853D01*
X158490001Y-107920001D01*
X157414803Y-107920001D01*
X155461260Y-105966458D01*
X155500000Y-105974164D01*
X156034609Y-105867824D01*
X156487828Y-105564992D01*
X156790660Y-105111773D01*
X156897000Y-104577164D01*
X156897000Y-103502836D01*
X156790660Y-102968227D01*
X156487828Y-102515008D01*
X156034609Y-102212176D01*
X155500000Y-102105836D01*
X154965391Y-102212176D01*
X154512172Y-102515008D01*
X154230000Y-102937307D01*
X153947828Y-102515008D01*
X153494609Y-102212176D01*
X152960000Y-102105836D01*
X152425391Y-102212176D01*
X151972172Y-102515008D01*
X151680702Y-102951222D01*
X151662059Y-102888059D01*
X151318026Y-102462370D01*
X150837277Y-102200740D01*
X150763070Y-102185780D01*
X150547000Y-102308280D01*
X150547000Y-103913000D01*
X150567000Y-103913000D01*
X150567000Y-104167000D01*
X150547000Y-104167000D01*
X150547000Y-105771720D01*
X150763070Y-105894220D01*
X150837277Y-105879260D01*
X151318026Y-105617630D01*
X151662059Y-105191941D01*
X151680702Y-105128778D01*
X151972172Y-105564992D01*
X152425391Y-105867824D01*
X152960000Y-105974164D01*
X153259740Y-105914542D01*
X156276696Y-108931498D01*
X156191057Y-108966883D01*
X156157882Y-109000000D01*
X150874802Y-109000000D01*
X147841260Y-105966458D01*
X147880000Y-105974164D01*
X148414609Y-105867824D01*
X148867828Y-105564992D01*
X149159298Y-105128778D01*
X149177941Y-105191941D01*
X149521974Y-105617630D01*
X150002723Y-105879260D01*
X150076930Y-105894220D01*
X150293000Y-105771720D01*
X150293000Y-104167000D01*
X150273000Y-104167000D01*
X150273000Y-103913000D01*
X150293000Y-103913000D01*
X150293000Y-102308280D01*
X150076930Y-102185780D01*
X150002723Y-102200740D01*
X149521974Y-102462370D01*
X149177941Y-102888059D01*
X149159298Y-102951222D01*
X148867828Y-102515008D01*
X148414609Y-102212176D01*
X147880000Y-102105836D01*
X147345391Y-102212176D01*
X146892172Y-102515008D01*
X146610000Y-102937307D01*
X146327828Y-102515008D01*
X145874609Y-102212176D01*
X145340000Y-102105836D01*
X144805391Y-102212176D01*
X144352172Y-102515008D01*
X144049340Y-102968227D01*
X143943000Y-103502836D01*
X141134562Y-103502836D01*
X141135716Y-102181106D01*
X140507526Y-100660771D01*
X139974686Y-100127000D01*
X183025137Y-100127000D01*
X182496562Y-100654653D01*
X182496562Y-100654653D01*
G37*
X182496562Y-100654653D02*
X181865720Y-102173889D01*
X181864284Y-103818894D01*
X182492474Y-105339229D01*
X183654653Y-106503438D01*
X185173889Y-107134280D01*
X186818894Y-107135716D01*
X188339229Y-106507526D01*
X188873000Y-105974686D01*
X188873000Y-128025137D01*
X188345347Y-127496562D01*
X186826111Y-126865720D01*
X185181106Y-126864284D01*
X183660771Y-127492474D01*
X182496562Y-128654653D01*
X181865720Y-130173889D01*
X181864284Y-131818894D01*
X182492474Y-133339229D01*
X183025314Y-133873000D01*
X139974863Y-133873000D01*
X140503438Y-133345347D01*
X141134280Y-131826111D01*
X141134387Y-131702946D01*
X147234017Y-131702946D01*
X147502812Y-132288379D01*
X147975182Y-132726385D01*
X148457056Y-132925975D01*
X148713000Y-132806836D01*
X148713000Y-131447000D01*
X147352633Y-131447000D01*
X147234017Y-131702946D01*
X141134387Y-131702946D01*
X141135055Y-130937054D01*
X147234017Y-130937054D01*
X147352633Y-131193000D01*
X148713000Y-131193000D01*
X148713000Y-129833164D01*
X148457056Y-129714025D01*
X147975182Y-129913615D01*
X147502812Y-130351621D01*
X147234017Y-130937054D01*
X141135055Y-130937054D01*
X141135716Y-130181106D01*
X140507526Y-128660771D01*
X139345347Y-127496562D01*
X137826111Y-126865720D01*
X136181106Y-126864284D01*
X134660771Y-127492474D01*
X134127000Y-128025314D01*
X134127000Y-125879078D01*
X147652378Y-125879078D01*
X147681917Y-126389428D01*
X147820389Y-126723729D01*
X148050984Y-126779410D01*
X148770395Y-126060000D01*
X148050984Y-125340590D01*
X147820389Y-125396271D01*
X147652378Y-125879078D01*
X134127000Y-125879078D01*
X134127000Y-125160984D01*
X148230590Y-125160984D01*
X148950000Y-125880395D01*
X148964142Y-125866252D01*
X149143748Y-126045858D01*
X149129605Y-126060000D01*
X149143748Y-126074142D01*
X148964142Y-126253748D01*
X148950000Y-126239605D01*
X148230590Y-126959016D01*
X148286271Y-127189611D01*
X148769078Y-127357622D01*
X149279428Y-127328083D01*
X149613729Y-127189611D01*
X149669410Y-126959018D01*
X149771072Y-127060680D01*
X149835910Y-127161441D01*
X150048110Y-127306431D01*
X150300000Y-127357440D01*
X150545000Y-127357440D01*
X150545000Y-129656560D01*
X150364000Y-129656560D01*
X150128683Y-129700838D01*
X149912559Y-129839910D01*
X149801160Y-130002948D01*
X149704818Y-129913615D01*
X149222944Y-129714025D01*
X148967000Y-129833164D01*
X148967000Y-131193000D01*
X148987000Y-131193000D01*
X148987000Y-131447000D01*
X148967000Y-131447000D01*
X148967000Y-132806836D01*
X149222944Y-132925975D01*
X149704818Y-132726385D01*
X149802398Y-132635903D01*
X149899910Y-132787441D01*
X150112110Y-132932431D01*
X150364000Y-132983440D01*
X152396000Y-132983440D01*
X152631317Y-132939162D01*
X152847441Y-132800090D01*
X152992431Y-132587890D01*
X153043440Y-132336000D01*
X153043440Y-131831000D01*
X155427829Y-131831000D01*
X155599110Y-131948031D01*
X155755416Y-131979684D01*
X156245640Y-132469908D01*
X156516534Y-132650914D01*
X156836074Y-132714474D01*
X166640526Y-132714474D01*
X166960067Y-132650913D01*
X167230960Y-132469908D01*
X168933863Y-130767005D01*
X169023453Y-130804206D01*
X169673694Y-130804774D01*
X170274655Y-130556462D01*
X170734846Y-130097073D01*
X170984206Y-129496547D01*
X170984774Y-128846306D01*
X170736462Y-128245345D01*
X170277073Y-127785154D01*
X169676547Y-127535794D01*
X169026306Y-127535226D01*
X168425345Y-127783538D01*
X167965154Y-128242927D01*
X167715794Y-128843453D01*
X167715226Y-129493694D01*
X167753298Y-129585834D01*
X166294658Y-131044474D01*
X162764082Y-131044474D01*
X162735277Y-131015669D01*
X162971042Y-130953831D01*
X163147419Y-130452878D01*
X163118664Y-129922560D01*
X162971042Y-129566169D01*
X162735275Y-129504331D01*
X161979605Y-130260000D01*
X161993748Y-130274142D01*
X161814142Y-130453748D01*
X161800000Y-130439605D01*
X161785858Y-130453748D01*
X161606252Y-130274142D01*
X161620395Y-130260000D01*
X160864725Y-129504331D01*
X160628958Y-129566169D01*
X160452581Y-130067122D01*
X160481336Y-130597440D01*
X160628958Y-130953831D01*
X160864723Y-131015669D01*
X160835918Y-131044474D01*
X157253400Y-131044474D01*
X157253400Y-130869000D01*
X157286100Y-130869000D01*
X157286100Y-130164150D01*
X157127350Y-130005400D01*
X157045491Y-130005400D01*
X156812102Y-130102073D01*
X156744324Y-130169851D01*
X156560090Y-130043969D01*
X156308200Y-129992960D01*
X155851000Y-129992960D01*
X155615683Y-130037238D01*
X155423351Y-130161000D01*
X153016533Y-130161000D01*
X152999162Y-130068683D01*
X152860090Y-129852559D01*
X152647890Y-129707569D01*
X152396000Y-129656560D01*
X152215000Y-129656560D01*
X152215000Y-128608400D01*
X155863960Y-128608400D01*
X155863960Y-129319600D01*
X155908238Y-129554917D01*
X156047310Y-129771041D01*
X156259510Y-129916031D01*
X156511400Y-129967040D01*
X156968600Y-129967040D01*
X157203917Y-129922762D01*
X157221842Y-129911227D01*
X157236235Y-129925645D01*
X157601523Y-130077327D01*
X157514700Y-130164150D01*
X157514700Y-130869000D01*
X158105250Y-130869000D01*
X158264000Y-130710250D01*
X158264000Y-130514090D01*
X158167327Y-130280701D01*
X157988698Y-130102073D01*
X157981495Y-130099089D01*
X158104775Y-130099197D01*
X158522086Y-129926767D01*
X158650076Y-129799000D01*
X159196000Y-129799000D01*
X159515541Y-129735439D01*
X159786434Y-129554434D01*
X160016143Y-129324725D01*
X161044331Y-129324725D01*
X161800000Y-130080395D01*
X162555669Y-129324725D01*
X162493831Y-129088958D01*
X161992878Y-128912581D01*
X161462560Y-128941336D01*
X161106169Y-129088958D01*
X161044331Y-129324725D01*
X160016143Y-129324725D01*
X162390434Y-126950434D01*
X162447038Y-126865720D01*
X162571439Y-126679541D01*
X162589116Y-126590672D01*
X162735317Y-126563162D01*
X162951441Y-126424090D01*
X163096431Y-126211890D01*
X163110551Y-126142163D01*
X168357443Y-126142163D01*
X168456042Y-126408965D01*
X169065582Y-126635401D01*
X169715377Y-126611341D01*
X170203958Y-126408965D01*
X170302557Y-126142163D01*
X169330000Y-125169605D01*
X168357443Y-126142163D01*
X163110551Y-126142163D01*
X163147440Y-125960000D01*
X163147440Y-124725582D01*
X167684599Y-124725582D01*
X167708659Y-125375377D01*
X167911035Y-125863958D01*
X168177837Y-125962557D01*
X169150395Y-124990000D01*
X169509605Y-124990000D01*
X170482163Y-125962557D01*
X170748965Y-125863958D01*
X170975401Y-125254418D01*
X170951341Y-124604623D01*
X170748965Y-124116042D01*
X170482163Y-124017443D01*
X169509605Y-124990000D01*
X169150395Y-124990000D01*
X168177837Y-124017443D01*
X167911035Y-124116042D01*
X167684599Y-124725582D01*
X163147440Y-124725582D01*
X163147440Y-124560000D01*
X163103162Y-124324683D01*
X162964090Y-124108559D01*
X162751890Y-123963569D01*
X162500000Y-123912560D01*
X161100000Y-123912560D01*
X160864683Y-123956838D01*
X160648559Y-124095910D01*
X160503569Y-124308110D01*
X160452560Y-124560000D01*
X160452560Y-125960000D01*
X160496838Y-126195317D01*
X160609200Y-126369932D01*
X158850132Y-128129000D01*
X158650189Y-128129000D01*
X158523765Y-128002355D01*
X158106756Y-127829197D01*
X157655225Y-127828803D01*
X157237914Y-128001233D01*
X157224449Y-128014674D01*
X157220490Y-128011969D01*
X156968600Y-127960960D01*
X156511400Y-127960960D01*
X156276083Y-128005238D01*
X156059959Y-128144310D01*
X155914969Y-128356510D01*
X155863960Y-128608400D01*
X152215000Y-128608400D01*
X152215000Y-126870194D01*
X152247440Y-126710000D01*
X152247440Y-125410000D01*
X152203162Y-125174683D01*
X152064090Y-124958559D01*
X151851890Y-124813569D01*
X151600000Y-124762560D01*
X150300000Y-124762560D01*
X150064683Y-124806838D01*
X149848559Y-124945910D01*
X149771063Y-125059329D01*
X149669410Y-125160982D01*
X149613729Y-124930389D01*
X149130922Y-124762378D01*
X148620572Y-124791917D01*
X148286271Y-124930389D01*
X148230590Y-125160984D01*
X134127000Y-125160984D01*
X134127000Y-123837837D01*
X168357443Y-123837837D01*
X169330000Y-124810395D01*
X170302557Y-123837837D01*
X170203958Y-123571035D01*
X169594418Y-123344599D01*
X168944623Y-123368659D01*
X168456042Y-123571035D01*
X168357443Y-123837837D01*
X134127000Y-123837837D01*
X134127000Y-118742836D01*
X143943000Y-118742836D01*
X143943000Y-119817164D01*
X144049340Y-120351773D01*
X144352172Y-120804992D01*
X144805391Y-121107824D01*
X145340000Y-121214164D01*
X145874609Y-121107824D01*
X146327828Y-120804992D01*
X146610000Y-120382693D01*
X146892172Y-120804992D01*
X147345391Y-121107824D01*
X147880000Y-121214164D01*
X148414609Y-121107824D01*
X148867828Y-120804992D01*
X149159298Y-120368778D01*
X149177941Y-120431941D01*
X149521974Y-120857630D01*
X150002723Y-121119260D01*
X150076930Y-121134220D01*
X150293000Y-121011720D01*
X150293000Y-119407000D01*
X150273000Y-119407000D01*
X150273000Y-119153000D01*
X150293000Y-119153000D01*
X150293000Y-117548280D01*
X150225047Y-117509755D01*
X153108173Y-114626629D01*
X159340908Y-114626629D01*
X159373044Y-114658821D01*
X159716572Y-114801467D01*
X159915558Y-114801640D01*
X156677831Y-118039367D01*
X156487828Y-117755008D01*
X156034609Y-117452176D01*
X155500000Y-117345836D01*
X154965391Y-117452176D01*
X154512172Y-117755008D01*
X154230000Y-118177307D01*
X153947828Y-117755008D01*
X153494609Y-117452176D01*
X152960000Y-117345836D01*
X152425391Y-117452176D01*
X151972172Y-117755008D01*
X151680702Y-118191222D01*
X151662059Y-118128059D01*
X151318026Y-117702370D01*
X150837277Y-117440740D01*
X150763070Y-117425780D01*
X150547000Y-117548280D01*
X150547000Y-119153000D01*
X150567000Y-119153000D01*
X150567000Y-119407000D01*
X150547000Y-119407000D01*
X150547000Y-121011720D01*
X150763070Y-121134220D01*
X150837277Y-121119260D01*
X151318026Y-120857630D01*
X151662059Y-120431941D01*
X151680702Y-120368778D01*
X151972172Y-120804992D01*
X152425391Y-121107824D01*
X152960000Y-121214164D01*
X153259740Y-121154542D01*
X153509609Y-121404411D01*
X153756170Y-121569158D01*
X154047010Y-121627010D01*
X156589531Y-121627010D01*
X156880370Y-121569158D01*
X157126932Y-121404411D01*
X163080915Y-115450428D01*
X163160734Y-115483572D01*
X163751357Y-115484088D01*
X164297218Y-115258542D01*
X164715215Y-114841274D01*
X164727090Y-114812676D01*
X164737999Y-114839077D01*
X165155267Y-115257074D01*
X165183865Y-115268949D01*
X165157464Y-115279858D01*
X164739467Y-115697126D01*
X164512969Y-116242593D01*
X164512453Y-116833216D01*
X164737999Y-117379077D01*
X165155267Y-117797074D01*
X165700734Y-118023572D01*
X166291357Y-118024088D01*
X166837218Y-117798542D01*
X167255215Y-117381274D01*
X167267090Y-117352676D01*
X167277999Y-117379077D01*
X167695267Y-117797074D01*
X167702341Y-117800011D01*
X167702341Y-117802552D01*
X167528355Y-117976235D01*
X167355197Y-118393244D01*
X167354803Y-118844775D01*
X167527233Y-119262086D01*
X167846235Y-119581645D01*
X168263244Y-119754803D01*
X168714775Y-119755197D01*
X169132086Y-119582767D01*
X169451645Y-119263765D01*
X169624803Y-118846756D01*
X169625197Y-118395225D01*
X169452767Y-117977914D01*
X169372341Y-117897348D01*
X169372341Y-117800557D01*
X169377218Y-117798542D01*
X169795215Y-117381274D01*
X169807090Y-117352676D01*
X169817999Y-117379077D01*
X170235267Y-117797074D01*
X170780734Y-118023572D01*
X171371357Y-118024088D01*
X171917218Y-117798542D01*
X172335215Y-117381274D01*
X172561713Y-116835807D01*
X172561955Y-116558616D01*
X177978851Y-121975512D01*
X178225413Y-122140259D01*
X178516252Y-122198111D01*
X179729489Y-122198111D01*
X179729489Y-123355718D01*
X179166306Y-123355226D01*
X178565345Y-123603538D01*
X178105154Y-124062927D01*
X177855794Y-124663453D01*
X177855226Y-125313694D01*
X178103538Y-125914655D01*
X178562927Y-126374846D01*
X178750000Y-126452525D01*
X178750000Y-127715504D01*
X178585345Y-127783538D01*
X178125154Y-128242927D01*
X177875794Y-128843453D01*
X177875226Y-129493694D01*
X178123538Y-130094655D01*
X178582927Y-130554846D01*
X179183453Y-130804206D01*
X179833694Y-130804774D01*
X180434655Y-130556462D01*
X180894846Y-130097073D01*
X181144206Y-129496547D01*
X181144774Y-128846306D01*
X180896462Y-128245345D01*
X180437073Y-127785154D01*
X180270000Y-127715779D01*
X180270000Y-126436232D01*
X180414655Y-126376462D01*
X180874846Y-125917073D01*
X181124206Y-125316547D01*
X181124774Y-124666306D01*
X181052039Y-124490274D01*
X181191637Y-124281350D01*
X181249489Y-123990511D01*
X181249489Y-123059026D01*
X185392642Y-123059026D01*
X185395291Y-123074791D01*
X185649268Y-123602036D01*
X186085680Y-123991954D01*
X186638087Y-124185184D01*
X186873000Y-124040924D01*
X186873000Y-122827000D01*
X187127000Y-122827000D01*
X187127000Y-124040924D01*
X187361913Y-124185184D01*
X187914320Y-123991954D01*
X188350732Y-123602036D01*
X188604709Y-123074791D01*
X188607358Y-123059026D01*
X188486217Y-122827000D01*
X187127000Y-122827000D01*
X186873000Y-122827000D01*
X185513783Y-122827000D01*
X185392642Y-123059026D01*
X181249489Y-123059026D01*
X181249489Y-121752913D01*
X185327563Y-117674839D01*
X185430729Y-118193489D01*
X185755585Y-118679670D01*
X186070366Y-118890000D01*
X185755585Y-119100330D01*
X185430729Y-119586511D01*
X185316655Y-120160000D01*
X185430729Y-120733489D01*
X185755585Y-121219670D01*
X186065069Y-121426461D01*
X185649268Y-121797964D01*
X185395291Y-122325209D01*
X185392642Y-122340974D01*
X185513783Y-122573000D01*
X186873000Y-122573000D01*
X186873000Y-122553000D01*
X187127000Y-122553000D01*
X187127000Y-122573000D01*
X188486217Y-122573000D01*
X188607358Y-122340974D01*
X188604709Y-122325209D01*
X188350732Y-121797964D01*
X187934931Y-121426461D01*
X188244415Y-121219670D01*
X188569271Y-120733489D01*
X188683345Y-120160000D01*
X188569271Y-119586511D01*
X188244415Y-119100330D01*
X187929634Y-118890000D01*
X188244415Y-118679670D01*
X188569271Y-118193489D01*
X188683345Y-117620000D01*
X188569271Y-117046511D01*
X188244415Y-116560330D01*
X187929634Y-116350000D01*
X188244415Y-116139670D01*
X188569271Y-115653489D01*
X188683345Y-115080000D01*
X188569271Y-114506511D01*
X188244415Y-114020330D01*
X187929634Y-113810000D01*
X188244415Y-113599670D01*
X188569271Y-113113489D01*
X188683345Y-112540000D01*
X188569271Y-111966511D01*
X188244415Y-111480330D01*
X188230087Y-111470757D01*
X188251317Y-111466762D01*
X188467441Y-111327690D01*
X188612431Y-111115490D01*
X188663440Y-110863600D01*
X188663440Y-109136400D01*
X188619162Y-108901083D01*
X188480090Y-108684959D01*
X188267890Y-108539969D01*
X188016000Y-108488960D01*
X185984000Y-108488960D01*
X185748683Y-108533238D01*
X185532559Y-108672310D01*
X185387569Y-108884510D01*
X185336560Y-109136400D01*
X185336560Y-109240000D01*
X181101563Y-109240000D01*
X180901890Y-109103569D01*
X180650000Y-109052560D01*
X180250000Y-109052560D01*
X180014683Y-109096838D01*
X180003021Y-109104342D01*
X180001890Y-109103569D01*
X179750000Y-109052560D01*
X179350000Y-109052560D01*
X179114683Y-109096838D01*
X178898559Y-109235910D01*
X178863640Y-109287015D01*
X178857414Y-109288254D01*
X178809160Y-109297852D01*
X178562599Y-109462599D01*
X177352599Y-110672599D01*
X177187852Y-110919161D01*
X177130000Y-111210000D01*
X177130000Y-113137537D01*
X177097808Y-113169673D01*
X176955162Y-113513201D01*
X176954838Y-113885167D01*
X177072528Y-114170000D01*
X175101823Y-114170000D01*
X175102229Y-113705184D01*
X174876683Y-113159323D01*
X174459415Y-112741326D01*
X174430817Y-112729451D01*
X174457218Y-112718542D01*
X174875215Y-112301274D01*
X175101713Y-111755807D01*
X175102229Y-111165184D01*
X174876683Y-110619323D01*
X174459415Y-110201326D01*
X174411630Y-110181484D01*
X174481426Y-109962890D01*
X173617341Y-109098805D01*
X172753256Y-109962890D01*
X172822921Y-110181075D01*
X172777464Y-110199858D01*
X172359467Y-110617126D01*
X172347592Y-110645724D01*
X172336683Y-110619323D01*
X171919415Y-110201326D01*
X171890817Y-110189451D01*
X171917218Y-110178542D01*
X172335215Y-109761274D01*
X172355057Y-109713489D01*
X172573651Y-109783285D01*
X173437736Y-108919200D01*
X173796946Y-108919200D01*
X174661031Y-109783285D01*
X174912294Y-109703058D01*
X175113691Y-109147833D01*
X175087282Y-108557801D01*
X174912294Y-108135342D01*
X174661031Y-108055115D01*
X173796946Y-108919200D01*
X173437736Y-108919200D01*
X172573651Y-108055115D01*
X172355466Y-108124780D01*
X172336683Y-108079323D01*
X172133226Y-107875510D01*
X172753256Y-107875510D01*
X173617341Y-108739595D01*
X174481426Y-107875510D01*
X174401199Y-107624247D01*
X173845974Y-107422850D01*
X173255942Y-107449259D01*
X172833483Y-107624247D01*
X172753256Y-107875510D01*
X172133226Y-107875510D01*
X171919415Y-107661326D01*
X171890817Y-107649451D01*
X171917218Y-107638542D01*
X172335215Y-107221274D01*
X172561713Y-106675807D01*
X172562229Y-106085184D01*
X172336683Y-105539323D01*
X171919415Y-105121326D01*
X171373948Y-104894828D01*
X170783325Y-104894312D01*
X170237464Y-105119858D01*
X169819467Y-105537126D01*
X169807592Y-105565724D01*
X169796683Y-105539323D01*
X169379415Y-105121326D01*
X168833948Y-104894828D01*
X168243325Y-104894312D01*
X167697464Y-105119858D01*
X167279467Y-105537126D01*
X167267592Y-105565724D01*
X167256683Y-105539323D01*
X166839415Y-105121326D01*
X166293948Y-104894828D01*
X165703325Y-104894312D01*
X165157464Y-105119858D01*
X164739467Y-105537126D01*
X164705387Y-105619200D01*
X163440800Y-105619200D01*
X163198214Y-105667454D01*
X163149960Y-105677052D01*
X162903399Y-105841799D01*
X160190971Y-108554227D01*
X160026224Y-108800789D01*
X159968372Y-109091628D01*
X159968372Y-111609497D01*
X159748697Y-111389438D01*
X159405169Y-111246792D01*
X159033203Y-111246468D01*
X158689427Y-111388513D01*
X158426178Y-111651303D01*
X158313928Y-111921629D01*
X151438371Y-111921629D01*
X151147532Y-111979481D01*
X150900970Y-112144228D01*
X145639740Y-117405458D01*
X145340000Y-117345836D01*
X144805391Y-117452176D01*
X144352172Y-117755008D01*
X144049340Y-118208227D01*
X143943000Y-118742836D01*
X134127000Y-118742836D01*
X134127000Y-105974863D01*
X134654653Y-106503438D01*
X136173889Y-107134280D01*
X137818894Y-107135716D01*
X139339229Y-106507526D01*
X140503438Y-105345347D01*
X141134280Y-103826111D01*
X141134562Y-103502836D01*
X143943000Y-103502836D01*
X143943000Y-104577164D01*
X144049340Y-105111773D01*
X144352172Y-105564992D01*
X144805391Y-105867824D01*
X145340000Y-105974164D01*
X145639740Y-105914542D01*
X150022599Y-110297401D01*
X150269161Y-110462148D01*
X150560000Y-110520000D01*
X156157537Y-110520000D01*
X156189673Y-110552192D01*
X156533201Y-110694838D01*
X156905167Y-110695162D01*
X157248943Y-110553117D01*
X157512192Y-110290327D01*
X157654838Y-109946799D01*
X157655162Y-109574833D01*
X157599451Y-109440001D01*
X158085759Y-109440001D01*
X158196883Y-109708943D01*
X158459673Y-109972192D01*
X158803201Y-110114838D01*
X159175167Y-110115162D01*
X159518943Y-109973117D01*
X159782192Y-109710327D01*
X159924838Y-109366799D01*
X159925162Y-108994833D01*
X159783117Y-108651057D01*
X159520327Y-108387808D01*
X159176799Y-108245162D01*
X159129923Y-108245121D01*
X159027402Y-108142600D01*
X158780840Y-107977853D01*
X158490001Y-107920001D01*
X157414803Y-107920001D01*
X155461260Y-105966458D01*
X155500000Y-105974164D01*
X156034609Y-105867824D01*
X156487828Y-105564992D01*
X156790660Y-105111773D01*
X156897000Y-104577164D01*
X156897000Y-103502836D01*
X156790660Y-102968227D01*
X156487828Y-102515008D01*
X156034609Y-102212176D01*
X155500000Y-102105836D01*
X154965391Y-102212176D01*
X154512172Y-102515008D01*
X154230000Y-102937307D01*
X153947828Y-102515008D01*
X153494609Y-102212176D01*
X152960000Y-102105836D01*
X152425391Y-102212176D01*
X151972172Y-102515008D01*
X151680702Y-102951222D01*
X151662059Y-102888059D01*
X151318026Y-102462370D01*
X150837277Y-102200740D01*
X150763070Y-102185780D01*
X150547000Y-102308280D01*
X150547000Y-103913000D01*
X150567000Y-103913000D01*
X150567000Y-104167000D01*
X150547000Y-104167000D01*
X150547000Y-105771720D01*
X150763070Y-105894220D01*
X150837277Y-105879260D01*
X151318026Y-105617630D01*
X151662059Y-105191941D01*
X151680702Y-105128778D01*
X151972172Y-105564992D01*
X152425391Y-105867824D01*
X152960000Y-105974164D01*
X153259740Y-105914542D01*
X156276696Y-108931498D01*
X156191057Y-108966883D01*
X156157882Y-109000000D01*
X150874802Y-109000000D01*
X147841260Y-105966458D01*
X147880000Y-105974164D01*
X148414609Y-105867824D01*
X148867828Y-105564992D01*
X149159298Y-105128778D01*
X149177941Y-105191941D01*
X149521974Y-105617630D01*
X150002723Y-105879260D01*
X150076930Y-105894220D01*
X150293000Y-105771720D01*
X150293000Y-104167000D01*
X150273000Y-104167000D01*
X150273000Y-103913000D01*
X150293000Y-103913000D01*
X150293000Y-102308280D01*
X150076930Y-102185780D01*
X150002723Y-102200740D01*
X149521974Y-102462370D01*
X149177941Y-102888059D01*
X149159298Y-102951222D01*
X148867828Y-102515008D01*
X148414609Y-102212176D01*
X147880000Y-102105836D01*
X147345391Y-102212176D01*
X146892172Y-102515008D01*
X146610000Y-102937307D01*
X146327828Y-102515008D01*
X145874609Y-102212176D01*
X145340000Y-102105836D01*
X144805391Y-102212176D01*
X144352172Y-102515008D01*
X144049340Y-102968227D01*
X143943000Y-103502836D01*
X141134562Y-103502836D01*
X141135716Y-102181106D01*
X140507526Y-100660771D01*
X139974686Y-100127000D01*
X183025137Y-100127000D01*
X182496562Y-100654653D01*
G36*
X169817999Y-109759077D02*
X170235267Y-110177074D01*
X170263865Y-110188949D01*
X170237464Y-110199858D01*
X169819467Y-110617126D01*
X169592969Y-111162593D01*
X169592453Y-111753216D01*
X169817999Y-112299077D01*
X170235267Y-112717074D01*
X170263865Y-112728949D01*
X170237464Y-112739858D01*
X169819467Y-113157126D01*
X169799625Y-113204911D01*
X169581031Y-113135115D01*
X168716946Y-113999200D01*
X169581031Y-114863285D01*
X169799216Y-114793620D01*
X169817999Y-114839077D01*
X170235267Y-115257074D01*
X170263865Y-115268949D01*
X170237464Y-115279858D01*
X169819467Y-115697126D01*
X169807592Y-115725724D01*
X169796683Y-115699323D01*
X169379415Y-115281326D01*
X169331630Y-115261484D01*
X169401426Y-115042890D01*
X168537341Y-114178805D01*
X167673256Y-115042890D01*
X167742921Y-115261075D01*
X167697464Y-115279858D01*
X167279467Y-115697126D01*
X167267592Y-115725724D01*
X167256683Y-115699323D01*
X166839415Y-115281326D01*
X166810817Y-115269451D01*
X166837218Y-115258542D01*
X167255215Y-114841274D01*
X167275057Y-114793489D01*
X167493651Y-114863285D01*
X168357736Y-113999200D01*
X167493651Y-113135115D01*
X167275466Y-113204780D01*
X167256683Y-113159323D01*
X167053226Y-112955510D01*
X167673256Y-112955510D01*
X168537341Y-113819595D01*
X169401426Y-112955510D01*
X169321199Y-112704247D01*
X168765974Y-112502850D01*
X168175942Y-112529259D01*
X167753483Y-112704247D01*
X167673256Y-112955510D01*
X167053226Y-112955510D01*
X166839415Y-112741326D01*
X166810817Y-112729451D01*
X166837218Y-112718542D01*
X167255215Y-112301274D01*
X167481713Y-111755807D01*
X167482229Y-111165184D01*
X167256683Y-110619323D01*
X166839415Y-110201326D01*
X166810817Y-110189451D01*
X166837218Y-110178542D01*
X167255215Y-109761274D01*
X167267090Y-109732676D01*
X167277999Y-109759077D01*
X167695267Y-110177074D01*
X168240734Y-110403572D01*
X168831357Y-110404088D01*
X169377218Y-110178542D01*
X169795215Y-109761274D01*
X169807090Y-109732676D01*
X169817999Y-109759077D01*
X169817999Y-109759077D01*
G37*
X169817999Y-109759077D02*
X170235267Y-110177074D01*
X170263865Y-110188949D01*
X170237464Y-110199858D01*
X169819467Y-110617126D01*
X169592969Y-111162593D01*
X169592453Y-111753216D01*
X169817999Y-112299077D01*
X170235267Y-112717074D01*
X170263865Y-112728949D01*
X170237464Y-112739858D01*
X169819467Y-113157126D01*
X169799625Y-113204911D01*
X169581031Y-113135115D01*
X168716946Y-113999200D01*
X169581031Y-114863285D01*
X169799216Y-114793620D01*
X169817999Y-114839077D01*
X170235267Y-115257074D01*
X170263865Y-115268949D01*
X170237464Y-115279858D01*
X169819467Y-115697126D01*
X169807592Y-115725724D01*
X169796683Y-115699323D01*
X169379415Y-115281326D01*
X169331630Y-115261484D01*
X169401426Y-115042890D01*
X168537341Y-114178805D01*
X167673256Y-115042890D01*
X167742921Y-115261075D01*
X167697464Y-115279858D01*
X167279467Y-115697126D01*
X167267592Y-115725724D01*
X167256683Y-115699323D01*
X166839415Y-115281326D01*
X166810817Y-115269451D01*
X166837218Y-115258542D01*
X167255215Y-114841274D01*
X167275057Y-114793489D01*
X167493651Y-114863285D01*
X168357736Y-113999200D01*
X167493651Y-113135115D01*
X167275466Y-113204780D01*
X167256683Y-113159323D01*
X167053226Y-112955510D01*
X167673256Y-112955510D01*
X168537341Y-113819595D01*
X169401426Y-112955510D01*
X169321199Y-112704247D01*
X168765974Y-112502850D01*
X168175942Y-112529259D01*
X167753483Y-112704247D01*
X167673256Y-112955510D01*
X167053226Y-112955510D01*
X166839415Y-112741326D01*
X166810817Y-112729451D01*
X166837218Y-112718542D01*
X167255215Y-112301274D01*
X167481713Y-111755807D01*
X167482229Y-111165184D01*
X167256683Y-110619323D01*
X166839415Y-110201326D01*
X166810817Y-110189451D01*
X166837218Y-110178542D01*
X167255215Y-109761274D01*
X167267090Y-109732676D01*
X167277999Y-109759077D01*
X167695267Y-110177074D01*
X168240734Y-110403572D01*
X168831357Y-110404088D01*
X169377218Y-110178542D01*
X169795215Y-109761274D01*
X169807090Y-109732676D01*
X169817999Y-109759077D01*
M02*
