G04 #@! TF.FileFunction,Legend,Top*
%FSLAX46Y46*%
G04 Gerber Fmt 4.6, Leading zero omitted, Abs format (unit mm)*
G04 Created by KiCad (PCBNEW 4.0.4+e1-6308~48~ubuntu16.04.1-stable) date Fri Oct 14 16:45:37 2016*
%MOMM*%
%LPD*%
G01*
G04 APERTURE LIST*
%ADD10C,0.100000*%
%ADD11C,0.300000*%
%ADD12C,0.150000*%
%ADD13C,0.254000*%
%ADD14C,0.304800*%
G04 APERTURE END LIST*
D10*
D11*
X142257143Y-109842857D02*
X143457143Y-109842857D01*
X142257143Y-110528572D02*
X142942857Y-110014286D01*
X143457143Y-110528572D02*
X142771429Y-109842857D01*
X142257143Y-111042857D02*
X143057143Y-111042857D01*
X143457143Y-111042857D02*
X143400000Y-110985714D01*
X143342857Y-111042857D01*
X143400000Y-111100000D01*
X143457143Y-111042857D01*
X143342857Y-111042857D01*
X142314286Y-112128572D02*
X142257143Y-112014286D01*
X142257143Y-111785715D01*
X142314286Y-111671429D01*
X142371429Y-111614286D01*
X142485714Y-111557143D01*
X142828571Y-111557143D01*
X142942857Y-111614286D01*
X143000000Y-111671429D01*
X143057143Y-111785715D01*
X143057143Y-112014286D01*
X143000000Y-112128572D01*
X142257143Y-113157143D02*
X142885714Y-113157143D01*
X143000000Y-113100000D01*
X143057143Y-112985714D01*
X143057143Y-112757143D01*
X143000000Y-112642857D01*
X142314286Y-113157143D02*
X142257143Y-113042857D01*
X142257143Y-112757143D01*
X142314286Y-112642857D01*
X142428571Y-112585714D01*
X142542857Y-112585714D01*
X142657143Y-112642857D01*
X142714286Y-112757143D01*
X142714286Y-113042857D01*
X142771429Y-113157143D01*
X142257143Y-114242857D02*
X143457143Y-114242857D01*
X142314286Y-114242857D02*
X142257143Y-114128571D01*
X142257143Y-113900000D01*
X142314286Y-113785714D01*
X142371429Y-113728571D01*
X142485714Y-113671428D01*
X142828571Y-113671428D01*
X142942857Y-113728571D01*
X143000000Y-113785714D01*
X143057143Y-113900000D01*
X143057143Y-114128571D01*
X143000000Y-114242857D01*
X143457143Y-115614286D02*
X142257143Y-115900000D01*
X143114286Y-116128571D01*
X142257143Y-116357143D01*
X143457143Y-116642857D01*
X142257143Y-117271429D02*
X142314286Y-117157143D01*
X142371429Y-117100000D01*
X142485714Y-117042857D01*
X142828571Y-117042857D01*
X142942857Y-117100000D01*
X143000000Y-117157143D01*
X143057143Y-117271429D01*
X143057143Y-117442857D01*
X143000000Y-117557143D01*
X142942857Y-117614286D01*
X142828571Y-117671429D01*
X142485714Y-117671429D01*
X142371429Y-117614286D01*
X142314286Y-117557143D01*
X142257143Y-117442857D01*
X142257143Y-117271429D01*
X142257143Y-118185714D02*
X143057143Y-118185714D01*
X142828571Y-118185714D02*
X142942857Y-118242857D01*
X143000000Y-118300000D01*
X143057143Y-118414286D01*
X143057143Y-118528571D01*
X142257143Y-118928571D02*
X143457143Y-118928571D01*
X142714286Y-119042857D02*
X142257143Y-119385714D01*
X143057143Y-119385714D02*
X142600000Y-118928571D01*
X142314286Y-119842857D02*
X142257143Y-119957143D01*
X142257143Y-120185715D01*
X142314286Y-120300000D01*
X142428571Y-120357143D01*
X142485714Y-120357143D01*
X142600000Y-120300000D01*
X142657143Y-120185715D01*
X142657143Y-120014286D01*
X142714286Y-119900000D01*
X142828571Y-119842857D01*
X142885714Y-119842857D01*
X143000000Y-119900000D01*
X143057143Y-120014286D01*
X143057143Y-120185715D01*
X143000000Y-120300000D01*
X142257143Y-120871429D02*
X143457143Y-120871429D01*
X142257143Y-121385715D02*
X142885714Y-121385715D01*
X143000000Y-121328572D01*
X143057143Y-121214286D01*
X143057143Y-121042858D01*
X143000000Y-120928572D01*
X142942857Y-120871429D01*
X142257143Y-122128572D02*
X142314286Y-122014286D01*
X142371429Y-121957143D01*
X142485714Y-121900000D01*
X142828571Y-121900000D01*
X142942857Y-121957143D01*
X143000000Y-122014286D01*
X143057143Y-122128572D01*
X143057143Y-122300000D01*
X143000000Y-122414286D01*
X142942857Y-122471429D01*
X142828571Y-122528572D01*
X142485714Y-122528572D01*
X142371429Y-122471429D01*
X142314286Y-122414286D01*
X142257143Y-122300000D01*
X142257143Y-122128572D01*
X143057143Y-123042857D02*
X141857143Y-123042857D01*
X143000000Y-123042857D02*
X143057143Y-123157143D01*
X143057143Y-123385714D01*
X143000000Y-123500000D01*
X142942857Y-123557143D01*
X142828571Y-123614286D01*
X142485714Y-123614286D01*
X142371429Y-123557143D01*
X142314286Y-123500000D01*
X142257143Y-123385714D01*
X142257143Y-123157143D01*
X142314286Y-123042857D01*
X140957143Y-105214288D02*
X140157143Y-105214288D01*
X141414286Y-104928574D02*
X140557143Y-104642859D01*
X140557143Y-105385717D01*
X140614286Y-105842859D02*
X140614286Y-106757145D01*
X140157143Y-107500002D02*
X140214286Y-107385716D01*
X140328571Y-107328573D01*
X141357143Y-107328573D01*
X140157143Y-108471430D02*
X140785714Y-108471430D01*
X140900000Y-108414287D01*
X140957143Y-108300001D01*
X140957143Y-108071430D01*
X140900000Y-107957144D01*
X140214286Y-108471430D02*
X140157143Y-108357144D01*
X140157143Y-108071430D01*
X140214286Y-107957144D01*
X140328571Y-107900001D01*
X140442857Y-107900001D01*
X140557143Y-107957144D01*
X140614286Y-108071430D01*
X140614286Y-108357144D01*
X140671429Y-108471430D01*
X140957143Y-108928573D02*
X140157143Y-109214287D01*
X140957143Y-109500001D02*
X140157143Y-109214287D01*
X139871429Y-109100001D01*
X139814286Y-109042858D01*
X139757143Y-108928573D01*
X140214286Y-110414287D02*
X140157143Y-110300001D01*
X140157143Y-110071430D01*
X140214286Y-109957144D01*
X140328571Y-109900001D01*
X140785714Y-109900001D01*
X140900000Y-109957144D01*
X140957143Y-110071430D01*
X140957143Y-110300001D01*
X140900000Y-110414287D01*
X140785714Y-110471430D01*
X140671429Y-110471430D01*
X140557143Y-109900001D01*
X140157143Y-110985715D02*
X140957143Y-110985715D01*
X140728571Y-110985715D02*
X140842857Y-111042858D01*
X140900000Y-111100001D01*
X140957143Y-111214287D01*
X140957143Y-111328572D01*
X140157143Y-112642858D02*
X141357143Y-112642858D01*
X141357143Y-113100001D01*
X141300000Y-113214287D01*
X141242857Y-113271430D01*
X141128571Y-113328573D01*
X140957143Y-113328573D01*
X140842857Y-113271430D01*
X140785714Y-113214287D01*
X140728571Y-113100001D01*
X140728571Y-112642858D01*
X140271429Y-114528573D02*
X140214286Y-114471430D01*
X140157143Y-114300001D01*
X140157143Y-114185715D01*
X140214286Y-114014287D01*
X140328571Y-113900001D01*
X140442857Y-113842858D01*
X140671429Y-113785715D01*
X140842857Y-113785715D01*
X141071429Y-113842858D01*
X141185714Y-113900001D01*
X141300000Y-114014287D01*
X141357143Y-114185715D01*
X141357143Y-114300001D01*
X141300000Y-114471430D01*
X141242857Y-114528573D01*
X140785714Y-115442858D02*
X140728571Y-115614287D01*
X140671429Y-115671430D01*
X140557143Y-115728573D01*
X140385714Y-115728573D01*
X140271429Y-115671430D01*
X140214286Y-115614287D01*
X140157143Y-115500001D01*
X140157143Y-115042858D01*
X141357143Y-115042858D01*
X141357143Y-115442858D01*
X141300000Y-115557144D01*
X141242857Y-115614287D01*
X141128571Y-115671430D01*
X141014286Y-115671430D01*
X140900000Y-115614287D01*
X140842857Y-115557144D01*
X140785714Y-115442858D01*
X140785714Y-115042858D01*
X140157143Y-117157144D02*
X140957143Y-117157144D01*
X140842857Y-117157144D02*
X140900000Y-117214287D01*
X140957143Y-117328573D01*
X140957143Y-117500001D01*
X140900000Y-117614287D01*
X140785714Y-117671430D01*
X140157143Y-117671430D01*
X140785714Y-117671430D02*
X140900000Y-117728573D01*
X140957143Y-117842859D01*
X140957143Y-118014287D01*
X140900000Y-118128573D01*
X140785714Y-118185716D01*
X140157143Y-118185716D01*
X140157143Y-119271430D02*
X140785714Y-119271430D01*
X140900000Y-119214287D01*
X140957143Y-119100001D01*
X140957143Y-118871430D01*
X140900000Y-118757144D01*
X140214286Y-119271430D02*
X140157143Y-119157144D01*
X140157143Y-118871430D01*
X140214286Y-118757144D01*
X140328571Y-118700001D01*
X140442857Y-118700001D01*
X140557143Y-118757144D01*
X140614286Y-118871430D01*
X140614286Y-119157144D01*
X140671429Y-119271430D01*
X140957143Y-119842858D02*
X140157143Y-119842858D01*
X140842857Y-119842858D02*
X140900000Y-119900001D01*
X140957143Y-120014287D01*
X140957143Y-120185715D01*
X140900000Y-120300001D01*
X140785714Y-120357144D01*
X140157143Y-120357144D01*
X140957143Y-121442858D02*
X140157143Y-121442858D01*
X140957143Y-120928572D02*
X140328571Y-120928572D01*
X140214286Y-120985715D01*
X140157143Y-121100001D01*
X140157143Y-121271429D01*
X140214286Y-121385715D01*
X140271429Y-121442858D01*
X140157143Y-122528572D02*
X140785714Y-122528572D01*
X140900000Y-122471429D01*
X140957143Y-122357143D01*
X140957143Y-122128572D01*
X140900000Y-122014286D01*
X140214286Y-122528572D02*
X140157143Y-122414286D01*
X140157143Y-122128572D01*
X140214286Y-122014286D01*
X140328571Y-121957143D01*
X140442857Y-121957143D01*
X140557143Y-122014286D01*
X140614286Y-122128572D01*
X140614286Y-122414286D01*
X140671429Y-122528572D01*
X140157143Y-123271429D02*
X140214286Y-123157143D01*
X140328571Y-123100000D01*
X141357143Y-123100000D01*
X140157143Y-124642857D02*
X140957143Y-124642857D01*
X140728571Y-124642857D02*
X140842857Y-124700000D01*
X140900000Y-124757143D01*
X140957143Y-124871429D01*
X140957143Y-124985714D01*
X140157143Y-125557143D02*
X140214286Y-125442857D01*
X140271429Y-125385714D01*
X140385714Y-125328571D01*
X140728571Y-125328571D01*
X140842857Y-125385714D01*
X140900000Y-125442857D01*
X140957143Y-125557143D01*
X140957143Y-125728571D01*
X140900000Y-125842857D01*
X140842857Y-125900000D01*
X140728571Y-125957143D01*
X140385714Y-125957143D01*
X140271429Y-125900000D01*
X140214286Y-125842857D01*
X140157143Y-125728571D01*
X140157143Y-125557143D01*
X140957143Y-126985714D02*
X140157143Y-126985714D01*
X140957143Y-126471428D02*
X140328571Y-126471428D01*
X140214286Y-126528571D01*
X140157143Y-126642857D01*
X140157143Y-126814285D01*
X140214286Y-126928571D01*
X140271429Y-126985714D01*
X140957143Y-127385714D02*
X140957143Y-127842857D01*
X141357143Y-127557142D02*
X140328571Y-127557142D01*
X140214286Y-127614285D01*
X140157143Y-127728571D01*
X140157143Y-127842857D01*
X140214286Y-128699999D02*
X140157143Y-128585713D01*
X140157143Y-128357142D01*
X140214286Y-128242856D01*
X140328571Y-128185713D01*
X140785714Y-128185713D01*
X140900000Y-128242856D01*
X140957143Y-128357142D01*
X140957143Y-128585713D01*
X140900000Y-128699999D01*
X140785714Y-128757142D01*
X140671429Y-128757142D01*
X140557143Y-128185713D01*
X138114286Y-107328572D02*
X138057143Y-107500001D01*
X138057143Y-107785715D01*
X138114286Y-107900001D01*
X138171429Y-107957144D01*
X138285714Y-108014287D01*
X138400000Y-108014287D01*
X138514286Y-107957144D01*
X138571429Y-107900001D01*
X138628571Y-107785715D01*
X138685714Y-107557144D01*
X138742857Y-107442858D01*
X138800000Y-107385715D01*
X138914286Y-107328572D01*
X139028571Y-107328572D01*
X139142857Y-107385715D01*
X139200000Y-107442858D01*
X139257143Y-107557144D01*
X139257143Y-107842858D01*
X139200000Y-108014287D01*
X138057143Y-109042858D02*
X138685714Y-109042858D01*
X138800000Y-108985715D01*
X138857143Y-108871429D01*
X138857143Y-108642858D01*
X138800000Y-108528572D01*
X138114286Y-109042858D02*
X138057143Y-108928572D01*
X138057143Y-108642858D01*
X138114286Y-108528572D01*
X138228571Y-108471429D01*
X138342857Y-108471429D01*
X138457143Y-108528572D01*
X138514286Y-108642858D01*
X138514286Y-108928572D01*
X138571429Y-109042858D01*
X138857143Y-110128572D02*
X138057143Y-110128572D01*
X138857143Y-109614286D02*
X138228571Y-109614286D01*
X138114286Y-109671429D01*
X138057143Y-109785715D01*
X138057143Y-109957143D01*
X138114286Y-110071429D01*
X138171429Y-110128572D01*
X138057143Y-110871429D02*
X138114286Y-110757143D01*
X138228571Y-110700000D01*
X139257143Y-110700000D01*
X138057143Y-112928572D02*
X138628571Y-112528572D01*
X138057143Y-112242857D02*
X139257143Y-112242857D01*
X139257143Y-112700000D01*
X139200000Y-112814286D01*
X139142857Y-112871429D01*
X139028571Y-112928572D01*
X138857143Y-112928572D01*
X138742857Y-112871429D01*
X138685714Y-112814286D01*
X138628571Y-112700000D01*
X138628571Y-112242857D01*
X138057143Y-113614286D02*
X138114286Y-113500000D01*
X138171429Y-113442857D01*
X138285714Y-113385714D01*
X138628571Y-113385714D01*
X138742857Y-113442857D01*
X138800000Y-113500000D01*
X138857143Y-113614286D01*
X138857143Y-113785714D01*
X138800000Y-113900000D01*
X138742857Y-113957143D01*
X138628571Y-114014286D01*
X138285714Y-114014286D01*
X138171429Y-113957143D01*
X138114286Y-113900000D01*
X138057143Y-113785714D01*
X138057143Y-113614286D01*
X138057143Y-115042857D02*
X139257143Y-115042857D01*
X138114286Y-115042857D02*
X138057143Y-114928571D01*
X138057143Y-114700000D01*
X138114286Y-114585714D01*
X138171429Y-114528571D01*
X138285714Y-114471428D01*
X138628571Y-114471428D01*
X138742857Y-114528571D01*
X138800000Y-114585714D01*
X138857143Y-114700000D01*
X138857143Y-114928571D01*
X138800000Y-115042857D01*
X138057143Y-115614285D02*
X138857143Y-115614285D01*
X138628571Y-115614285D02*
X138742857Y-115671428D01*
X138800000Y-115728571D01*
X138857143Y-115842857D01*
X138857143Y-115957142D01*
X138057143Y-116357142D02*
X138857143Y-116357142D01*
X139257143Y-116357142D02*
X139200000Y-116299999D01*
X139142857Y-116357142D01*
X139200000Y-116414285D01*
X139257143Y-116357142D01*
X139142857Y-116357142D01*
X138857143Y-117442857D02*
X137885714Y-117442857D01*
X137771429Y-117385714D01*
X137714286Y-117328571D01*
X137657143Y-117214286D01*
X137657143Y-117042857D01*
X137714286Y-116928571D01*
X138114286Y-117442857D02*
X138057143Y-117328571D01*
X138057143Y-117100000D01*
X138114286Y-116985714D01*
X138171429Y-116928571D01*
X138285714Y-116871428D01*
X138628571Y-116871428D01*
X138742857Y-116928571D01*
X138800000Y-116985714D01*
X138857143Y-117100000D01*
X138857143Y-117328571D01*
X138800000Y-117442857D01*
X138857143Y-118528571D02*
X138057143Y-118528571D01*
X138857143Y-118014285D02*
X138228571Y-118014285D01*
X138114286Y-118071428D01*
X138057143Y-118185714D01*
X138057143Y-118357142D01*
X138114286Y-118471428D01*
X138171429Y-118528571D01*
X138114286Y-119557142D02*
X138057143Y-119442856D01*
X138057143Y-119214285D01*
X138114286Y-119099999D01*
X138228571Y-119042856D01*
X138685714Y-119042856D01*
X138800000Y-119099999D01*
X138857143Y-119214285D01*
X138857143Y-119442856D01*
X138800000Y-119557142D01*
X138685714Y-119614285D01*
X138571429Y-119614285D01*
X138457143Y-119042856D01*
X138857143Y-120014285D02*
X138857143Y-120642856D01*
X138057143Y-120014285D01*
X138057143Y-120642856D01*
X139142857Y-121957142D02*
X139200000Y-122014285D01*
X139257143Y-122128571D01*
X139257143Y-122414285D01*
X139200000Y-122528571D01*
X139142857Y-122585714D01*
X139028571Y-122642857D01*
X138914286Y-122642857D01*
X138742857Y-122585714D01*
X138057143Y-121900000D01*
X138057143Y-122642857D01*
X139257143Y-123385714D02*
X139257143Y-123499999D01*
X139200000Y-123614285D01*
X139142857Y-123671428D01*
X139028571Y-123728571D01*
X138800000Y-123785714D01*
X138514286Y-123785714D01*
X138285714Y-123728571D01*
X138171429Y-123671428D01*
X138114286Y-123614285D01*
X138057143Y-123499999D01*
X138057143Y-123385714D01*
X138114286Y-123271428D01*
X138171429Y-123214285D01*
X138285714Y-123157142D01*
X138514286Y-123099999D01*
X138800000Y-123099999D01*
X139028571Y-123157142D01*
X139142857Y-123214285D01*
X139200000Y-123271428D01*
X139257143Y-123385714D01*
X138057143Y-124928571D02*
X138057143Y-124242856D01*
X138057143Y-124585714D02*
X139257143Y-124585714D01*
X139085714Y-124471428D01*
X138971429Y-124357142D01*
X138914286Y-124242856D01*
X139257143Y-125957142D02*
X139257143Y-125728571D01*
X139200000Y-125614285D01*
X139142857Y-125557142D01*
X138971429Y-125442856D01*
X138742857Y-125385713D01*
X138285714Y-125385713D01*
X138171429Y-125442856D01*
X138114286Y-125499999D01*
X138057143Y-125614285D01*
X138057143Y-125842856D01*
X138114286Y-125957142D01*
X138171429Y-126014285D01*
X138285714Y-126071428D01*
X138571429Y-126071428D01*
X138685714Y-126014285D01*
X138742857Y-125957142D01*
X138800000Y-125842856D01*
X138800000Y-125614285D01*
X138742857Y-125499999D01*
X138685714Y-125442856D01*
X138571429Y-125385713D01*
D12*
X149875000Y-128559000D02*
X149875000Y-123561000D01*
X149735000Y-128551000D02*
X149735000Y-126214000D01*
X149735000Y-125906000D02*
X149735000Y-123569000D01*
X149595000Y-128535000D02*
X149595000Y-126533000D01*
X149595000Y-125587000D02*
X149595000Y-123585000D01*
X149455000Y-128511000D02*
X149455000Y-126680000D01*
X149455000Y-125440000D02*
X149455000Y-123609000D01*
X149315000Y-128478000D02*
X149315000Y-126772000D01*
X149315000Y-125348000D02*
X149315000Y-123642000D01*
X149175000Y-128437000D02*
X149175000Y-126828000D01*
X149175000Y-125292000D02*
X149175000Y-123683000D01*
X149035000Y-128387000D02*
X149035000Y-126855000D01*
X149035000Y-125265000D02*
X149035000Y-123733000D01*
X148895000Y-128326000D02*
X148895000Y-126858000D01*
X148895000Y-125262000D02*
X148895000Y-123794000D01*
X148755000Y-128256000D02*
X148755000Y-126836000D01*
X148755000Y-125284000D02*
X148755000Y-123864000D01*
X148615000Y-128174000D02*
X148615000Y-126786000D01*
X148615000Y-125334000D02*
X148615000Y-123946000D01*
X148475000Y-128079000D02*
X148475000Y-126704000D01*
X148475000Y-125416000D02*
X148475000Y-124041000D01*
X148335000Y-127968000D02*
X148335000Y-126572000D01*
X148335000Y-125548000D02*
X148335000Y-124152000D01*
X148195000Y-127840000D02*
X148195000Y-126325000D01*
X148195000Y-125795000D02*
X148195000Y-124280000D01*
X148055000Y-127691000D02*
X148055000Y-124429000D01*
X147915000Y-127512000D02*
X147915000Y-124608000D01*
X147775000Y-127293000D02*
X147775000Y-124827000D01*
X147635000Y-127004000D02*
X147635000Y-125116000D01*
X147495000Y-126532000D02*
X147495000Y-125588000D01*
X149750000Y-126060000D02*
G75*
G03X149750000Y-126060000I-800000J0D01*
G01*
X152487500Y-126060000D02*
G75*
G03X152487500Y-126060000I-2537500J0D01*
G01*
X164050000Y-124010000D02*
X164050000Y-131510000D01*
X164050000Y-131510000D02*
X159550000Y-131510000D01*
X159550000Y-131510000D02*
X159550000Y-124010000D01*
X159550000Y-124010000D02*
X164050000Y-124010000D01*
X188270000Y-111270000D02*
X188270000Y-123970000D01*
X188270000Y-123970000D02*
X185730000Y-123970000D01*
X185730000Y-123970000D02*
X185730000Y-111270000D01*
X188550000Y-108450000D02*
X188550000Y-110000000D01*
X188270000Y-111270000D02*
X185730000Y-111270000D01*
X185450000Y-110000000D02*
X185450000Y-108450000D01*
X185450000Y-108450000D02*
X188550000Y-108450000D01*
X150110000Y-132590000D02*
X147570000Y-132590000D01*
X152930000Y-132870000D02*
X151380000Y-132870000D01*
X150110000Y-132590000D02*
X150110000Y-130050000D01*
X151380000Y-129770000D02*
X152930000Y-129770000D01*
X152930000Y-129770000D02*
X152930000Y-132870000D01*
X150110000Y-130050000D02*
X147570000Y-130050000D01*
X147570000Y-130050000D02*
X147570000Y-132590000D01*
X180250000Y-109475000D02*
X179750000Y-109475000D01*
X179750000Y-110525000D02*
X180250000Y-110525000D01*
X180250000Y-112475000D02*
X179750000Y-112475000D01*
X179750000Y-113525000D02*
X180250000Y-113525000D01*
X171890000Y-127900000D02*
X176970000Y-127900000D01*
X176970000Y-127900000D02*
X176970000Y-130440000D01*
X176970000Y-130440000D02*
X171890000Y-130440000D01*
X171890000Y-130440000D02*
X171890000Y-127900000D01*
X171890000Y-129170000D02*
X170620000Y-129170000D01*
X176970000Y-129170000D02*
X178240000Y-129170000D01*
X176950000Y-126260000D02*
X171870000Y-126260000D01*
X171870000Y-126260000D02*
X171870000Y-123720000D01*
X171870000Y-123720000D02*
X176950000Y-123720000D01*
X176950000Y-123720000D02*
X176950000Y-126260000D01*
X176950000Y-124990000D02*
X178220000Y-124990000D01*
X171870000Y-124990000D02*
X170600000Y-124990000D01*
X154867214Y-116660000D02*
G75*
G03X154867214Y-116660000I-447214J0D01*
G01*
X147420000Y-106660000D02*
X146420000Y-111660000D01*
X146420000Y-111660000D02*
X145420000Y-116660000D01*
X145420000Y-116660000D02*
X152420000Y-116660000D01*
X152420000Y-116660000D02*
X153420000Y-111660000D01*
X154420000Y-106660000D02*
X153420000Y-111660000D01*
X153420000Y-111660000D02*
X146420000Y-111660000D01*
X147420000Y-106660000D02*
X154420000Y-106660000D01*
X156720000Y-121260000D02*
X144120000Y-121260000D01*
X144120000Y-105960000D02*
X144120000Y-117360000D01*
X156720000Y-105960000D02*
X156720000Y-117360000D01*
X144120000Y-102060000D02*
X156720000Y-102060000D01*
X155640000Y-129430000D02*
X155640000Y-130530000D01*
X155640000Y-130530000D02*
X157840000Y-130530000D01*
X157840000Y-130530000D02*
X157840000Y-129430000D01*
X157840000Y-129430000D02*
X155690000Y-129430000D01*
X155690000Y-129430000D02*
X155640000Y-129430000D01*
D13*
X164036461Y-114860260D02*
X164036461Y-106958320D01*
X164036461Y-106958320D02*
X171938401Y-106958320D01*
X171938401Y-106958320D02*
X174036441Y-104860280D01*
X174036441Y-104860280D02*
X175136261Y-105960100D01*
X175136261Y-105960100D02*
X173038221Y-108058140D01*
X173038221Y-108058140D02*
X173038221Y-114458940D01*
X173038221Y-114458940D02*
X171537081Y-115960080D01*
X171537081Y-115960080D02*
X165136281Y-115960080D01*
X164036461Y-114860260D02*
X161938421Y-116958300D01*
X161938421Y-116958300D02*
X163038241Y-118058120D01*
X163038241Y-118058120D02*
X165136281Y-115960080D01*
X176337681Y-103658860D02*
X160737001Y-103658860D01*
X160737001Y-103658860D02*
X160737001Y-119259540D01*
X160737001Y-119259540D02*
X174536821Y-119259540D01*
X174536821Y-119259540D02*
X176337681Y-117458680D01*
X176337681Y-117458680D02*
X176337681Y-103658860D01*
D12*
X145833334Y-126357143D02*
X145785715Y-126404762D01*
X145642858Y-126452381D01*
X145547620Y-126452381D01*
X145404762Y-126404762D01*
X145309524Y-126309524D01*
X145261905Y-126214286D01*
X145214286Y-126023810D01*
X145214286Y-125880952D01*
X145261905Y-125690476D01*
X145309524Y-125595238D01*
X145404762Y-125500000D01*
X145547620Y-125452381D01*
X145642858Y-125452381D01*
X145785715Y-125500000D01*
X145833334Y-125547619D01*
X146785715Y-126452381D02*
X146214286Y-126452381D01*
X146500000Y-126452381D02*
X146500000Y-125452381D01*
X146404762Y-125595238D01*
X146309524Y-125690476D01*
X146214286Y-125738095D01*
X165357143Y-131166666D02*
X165404762Y-131214285D01*
X165452381Y-131357142D01*
X165452381Y-131452380D01*
X165404762Y-131595238D01*
X165309524Y-131690476D01*
X165214286Y-131738095D01*
X165023810Y-131785714D01*
X164880952Y-131785714D01*
X164690476Y-131738095D01*
X164595238Y-131690476D01*
X164500000Y-131595238D01*
X164452381Y-131452380D01*
X164452381Y-131357142D01*
X164500000Y-131214285D01*
X164547619Y-131166666D01*
X164547619Y-130785714D02*
X164500000Y-130738095D01*
X164452381Y-130642857D01*
X164452381Y-130404761D01*
X164500000Y-130309523D01*
X164547619Y-130261904D01*
X164642857Y-130214285D01*
X164738095Y-130214285D01*
X164880952Y-130261904D01*
X165452381Y-130833333D01*
X165452381Y-130214285D01*
X186361905Y-125452381D02*
X186361905Y-124452381D01*
X186742858Y-124452381D01*
X186838096Y-124500000D01*
X186885715Y-124547619D01*
X186933334Y-124642857D01*
X186933334Y-124785714D01*
X186885715Y-124880952D01*
X186838096Y-124928571D01*
X186742858Y-124976190D01*
X186361905Y-124976190D01*
X187885715Y-125452381D02*
X187314286Y-125452381D01*
X187600000Y-125452381D02*
X187600000Y-124452381D01*
X187504762Y-124595238D01*
X187409524Y-124690476D01*
X187314286Y-124738095D01*
X145261905Y-132452381D02*
X145261905Y-131452381D01*
X145642858Y-131452381D01*
X145738096Y-131500000D01*
X145785715Y-131547619D01*
X145833334Y-131642857D01*
X145833334Y-131785714D01*
X145785715Y-131880952D01*
X145738096Y-131928571D01*
X145642858Y-131976190D01*
X145261905Y-131976190D01*
X146214286Y-131547619D02*
X146261905Y-131500000D01*
X146357143Y-131452381D01*
X146595239Y-131452381D01*
X146690477Y-131500000D01*
X146738096Y-131547619D01*
X146785715Y-131642857D01*
X146785715Y-131738095D01*
X146738096Y-131880952D01*
X146166667Y-132452381D01*
X146785715Y-132452381D01*
X181833334Y-110452381D02*
X181500000Y-109976190D01*
X181261905Y-110452381D02*
X181261905Y-109452381D01*
X181642858Y-109452381D01*
X181738096Y-109500000D01*
X181785715Y-109547619D01*
X181833334Y-109642857D01*
X181833334Y-109785714D01*
X181785715Y-109880952D01*
X181738096Y-109928571D01*
X181642858Y-109976190D01*
X181261905Y-109976190D01*
X182785715Y-110452381D02*
X182214286Y-110452381D01*
X182500000Y-110452381D02*
X182500000Y-109452381D01*
X182404762Y-109595238D01*
X182309524Y-109690476D01*
X182214286Y-109738095D01*
X181833334Y-113452381D02*
X181500000Y-112976190D01*
X181261905Y-113452381D02*
X181261905Y-112452381D01*
X181642858Y-112452381D01*
X181738096Y-112500000D01*
X181785715Y-112547619D01*
X181833334Y-112642857D01*
X181833334Y-112785714D01*
X181785715Y-112880952D01*
X181738096Y-112928571D01*
X181642858Y-112976190D01*
X181261905Y-112976190D01*
X182214286Y-112547619D02*
X182261905Y-112500000D01*
X182357143Y-112452381D01*
X182595239Y-112452381D01*
X182690477Y-112500000D01*
X182738096Y-112547619D01*
X182785715Y-112642857D01*
X182785715Y-112738095D01*
X182738096Y-112880952D01*
X182166667Y-113452381D01*
X182785715Y-113452381D01*
X166833334Y-129552381D02*
X166500000Y-129076190D01*
X166261905Y-129552381D02*
X166261905Y-128552381D01*
X166642858Y-128552381D01*
X166738096Y-128600000D01*
X166785715Y-128647619D01*
X166833334Y-128742857D01*
X166833334Y-128885714D01*
X166785715Y-128980952D01*
X166738096Y-129028571D01*
X166642858Y-129076190D01*
X166261905Y-129076190D01*
X167166667Y-128552381D02*
X167785715Y-128552381D01*
X167452381Y-128933333D01*
X167595239Y-128933333D01*
X167690477Y-128980952D01*
X167738096Y-129028571D01*
X167785715Y-129123810D01*
X167785715Y-129361905D01*
X167738096Y-129457143D01*
X167690477Y-129504762D01*
X167595239Y-129552381D01*
X167309524Y-129552381D01*
X167214286Y-129504762D01*
X167166667Y-129457143D01*
X167033334Y-125452381D02*
X166700000Y-124976190D01*
X166461905Y-125452381D02*
X166461905Y-124452381D01*
X166842858Y-124452381D01*
X166938096Y-124500000D01*
X166985715Y-124547619D01*
X167033334Y-124642857D01*
X167033334Y-124785714D01*
X166985715Y-124880952D01*
X166938096Y-124928571D01*
X166842858Y-124976190D01*
X166461905Y-124976190D01*
X167890477Y-124785714D02*
X167890477Y-125452381D01*
X167652381Y-124404762D02*
X167414286Y-125119048D01*
X168033334Y-125119048D01*
X144738095Y-122804762D02*
X144880952Y-122852381D01*
X145119048Y-122852381D01*
X145214286Y-122804762D01*
X145261905Y-122757143D01*
X145309524Y-122661905D01*
X145309524Y-122566667D01*
X145261905Y-122471429D01*
X145214286Y-122423810D01*
X145119048Y-122376190D01*
X144928571Y-122328571D01*
X144833333Y-122280952D01*
X144785714Y-122233333D01*
X144738095Y-122138095D01*
X144738095Y-122042857D01*
X144785714Y-121947619D01*
X144833333Y-121900000D01*
X144928571Y-121852381D01*
X145166667Y-121852381D01*
X145309524Y-121900000D01*
X146261905Y-122852381D02*
X145690476Y-122852381D01*
X145976190Y-122852381D02*
X145976190Y-121852381D01*
X145880952Y-121995238D01*
X145785714Y-122090476D01*
X145690476Y-122138095D01*
X155978095Y-127232381D02*
X155978095Y-128041905D01*
X156025714Y-128137143D01*
X156073333Y-128184762D01*
X156168571Y-128232381D01*
X156359048Y-128232381D01*
X156454286Y-128184762D01*
X156501905Y-128137143D01*
X156549524Y-128041905D01*
X156549524Y-127232381D01*
X157549524Y-128232381D02*
X156978095Y-128232381D01*
X157263809Y-128232381D02*
X157263809Y-127232381D01*
X157168571Y-127375238D01*
X157073333Y-127470476D01*
X156978095Y-127518095D01*
D14*
X161538857Y-119965429D02*
X161538857Y-121199143D01*
X161611429Y-121344286D01*
X161684000Y-121416857D01*
X161829143Y-121489429D01*
X162119429Y-121489429D01*
X162264571Y-121416857D01*
X162337143Y-121344286D01*
X162409714Y-121199143D01*
X162409714Y-119965429D01*
X163062857Y-120110571D02*
X163135428Y-120038000D01*
X163280571Y-119965429D01*
X163643428Y-119965429D01*
X163788571Y-120038000D01*
X163861142Y-120110571D01*
X163933714Y-120255714D01*
X163933714Y-120400857D01*
X163861142Y-120618571D01*
X162990285Y-121489429D01*
X163933714Y-121489429D01*
D12*
X136261905Y-103452381D02*
X136261905Y-102452381D01*
X136642858Y-102452381D01*
X136738096Y-102500000D01*
X136785715Y-102547619D01*
X136833334Y-102642857D01*
X136833334Y-102785714D01*
X136785715Y-102880952D01*
X136738096Y-102928571D01*
X136642858Y-102976190D01*
X136261905Y-102976190D01*
X137166667Y-102452381D02*
X137785715Y-102452381D01*
X137452381Y-102833333D01*
X137595239Y-102833333D01*
X137690477Y-102880952D01*
X137738096Y-102928571D01*
X137785715Y-103023810D01*
X137785715Y-103261905D01*
X137738096Y-103357143D01*
X137690477Y-103404762D01*
X137595239Y-103452381D01*
X137309524Y-103452381D01*
X137214286Y-103404762D01*
X137166667Y-103357143D01*
X185261905Y-103452381D02*
X185261905Y-102452381D01*
X185642858Y-102452381D01*
X185738096Y-102500000D01*
X185785715Y-102547619D01*
X185833334Y-102642857D01*
X185833334Y-102785714D01*
X185785715Y-102880952D01*
X185738096Y-102928571D01*
X185642858Y-102976190D01*
X185261905Y-102976190D01*
X186690477Y-102785714D02*
X186690477Y-103452381D01*
X186452381Y-102404762D02*
X186214286Y-103119048D01*
X186833334Y-103119048D01*
X136261905Y-132452381D02*
X136261905Y-131452381D01*
X136642858Y-131452381D01*
X136738096Y-131500000D01*
X136785715Y-131547619D01*
X136833334Y-131642857D01*
X136833334Y-131785714D01*
X136785715Y-131880952D01*
X136738096Y-131928571D01*
X136642858Y-131976190D01*
X136261905Y-131976190D01*
X137738096Y-131452381D02*
X137261905Y-131452381D01*
X137214286Y-131928571D01*
X137261905Y-131880952D01*
X137357143Y-131833333D01*
X137595239Y-131833333D01*
X137690477Y-131880952D01*
X137738096Y-131928571D01*
X137785715Y-132023810D01*
X137785715Y-132261905D01*
X137738096Y-132357143D01*
X137690477Y-132404762D01*
X137595239Y-132452381D01*
X137357143Y-132452381D01*
X137261905Y-132404762D01*
X137214286Y-132357143D01*
X185261905Y-131452381D02*
X185261905Y-130452381D01*
X185642858Y-130452381D01*
X185738096Y-130500000D01*
X185785715Y-130547619D01*
X185833334Y-130642857D01*
X185833334Y-130785714D01*
X185785715Y-130880952D01*
X185738096Y-130928571D01*
X185642858Y-130976190D01*
X185261905Y-130976190D01*
X186690477Y-130452381D02*
X186500000Y-130452381D01*
X186404762Y-130500000D01*
X186357143Y-130547619D01*
X186261905Y-130690476D01*
X186214286Y-130880952D01*
X186214286Y-131261905D01*
X186261905Y-131357143D01*
X186309524Y-131404762D01*
X186404762Y-131452381D01*
X186595239Y-131452381D01*
X186690477Y-131404762D01*
X186738096Y-131357143D01*
X186785715Y-131261905D01*
X186785715Y-131023810D01*
X186738096Y-130928571D01*
X186690477Y-130880952D01*
X186595239Y-130833333D01*
X186404762Y-130833333D01*
X186309524Y-130880952D01*
X186261905Y-130928571D01*
X186214286Y-131023810D01*
M02*
