M48
;DRILL file {KiCad 4.0.4+e1-6308~48~ubuntu16.04.1-stable} date Fri Oct 14 16:34:04 2016
;FORMAT={-:-/ absolute / inch / decimal}
FMAT,2
INCH,TZ
T1C0.016
T2C0.028
T3C0.031
T4C0.035
T5C0.039
T6C0.040
T7C0.138
%
G90
G05
M72
T1
X6.1701Y-4.3213
X6.2594Y-4.2984
X6.2684Y-4.4166
X6.2954Y-4.4829
X7.0035Y-4.4764
T2
X6.2157Y-5.0773
X6.2402Y-5.1567
X6.6335Y-4.6701
T3
X5.722Y-4.0961
X5.722Y-4.6961
X5.822Y-4.0961
X5.822Y-4.6961
X5.8642Y-4.963
X5.922Y-4.0961
X5.922Y-4.6961
X5.9429Y-4.963
X6.022Y-4.0961
X6.022Y-4.6961
X6.122Y-4.0961
X6.122Y-4.6961
T4
X6.3701Y-4.9315
X6.3701Y-5.1283
T5
X6.4353Y-4.2882
X6.4353Y-4.3882
X6.4353Y-4.4882
X6.5353Y-4.1882
X6.5353Y-4.2882
X6.5353Y-4.3882
X6.5353Y-4.4882
X6.5353Y-4.5882
X6.6353Y-4.1882
X6.6353Y-4.2882
X6.6353Y-4.4882
X6.6353Y-4.5882
X6.6665Y-4.9209
X6.6673Y-5.0854
X6.7353Y-4.1882
X6.7353Y-4.2882
X6.7353Y-4.3882
X6.7353Y-4.4882
X6.7353Y-4.5882
X6.8353Y-4.2882
X6.8353Y-4.3882
X6.8353Y-4.4882
X7.0665Y-4.9209
X7.0673Y-5.0854
T6
X5.8598Y-5.1701
X5.9598Y-5.1701
X7.3622Y-4.3307
X7.3622Y-4.4307
X7.3622Y-4.5307
X7.3622Y-4.6307
X7.3622Y-4.7307
X7.3622Y-4.8307
T7
X5.3937Y-4.0551
X5.3937Y-5.1575
X7.3228Y-4.0551
X7.3228Y-5.1575
T0
M30
