G04 #@! TF.FileFunction,Copper,L2,Inr,Signal*
%FSLAX46Y46*%
G04 Gerber Fmt 4.6, Leading zero omitted, Abs format (unit mm)*
G04 Created by KiCad (PCBNEW 4.0.4+e1-6308~48~ubuntu16.04.1-stable) date Fri Oct 14 16:45:37 2016*
%MOMM*%
%LPD*%
G01*
G04 APERTURE LIST*
%ADD10C,0.100000*%
%ADD11R,1.300000X1.300000*%
%ADD12C,1.300000*%
%ADD13R,1.400000X1.400000*%
%ADD14C,1.400000*%
%ADD15R,2.032000X1.727200*%
%ADD16O,2.032000X1.727200*%
%ADD17R,2.032000X2.032000*%
%ADD18O,2.032000X2.032000*%
%ADD19C,1.998980*%
%ADD20O,1.524000X2.524000*%
%ADD21C,1.699260*%
%ADD22C,7.000000*%
%ADD23C,1.000000*%
%ADD24C,0.600000*%
%ADD25C,0.400000*%
%ADD26C,0.254000*%
G04 APERTURE END LIST*
D10*
D11*
X150950000Y-126060000D03*
D12*
X148950000Y-126060000D03*
D13*
X161800000Y-125260000D03*
D14*
X161800000Y-130260000D03*
D15*
X187000000Y-110000000D03*
D16*
X187000000Y-112540000D03*
X187000000Y-115080000D03*
X187000000Y-117620000D03*
X187000000Y-120160000D03*
X187000000Y-122700000D03*
D17*
X151380000Y-131320000D03*
D18*
X148840000Y-131320000D03*
D19*
X169350000Y-129170000D03*
X179510000Y-129170000D03*
X179490000Y-124990000D03*
X169330000Y-124990000D03*
D20*
X145340000Y-119280000D03*
X147880000Y-119280000D03*
X150420000Y-119280000D03*
X152960000Y-119280000D03*
X155500000Y-119280000D03*
X155500000Y-104040000D03*
X152960000Y-104040000D03*
X150420000Y-104040000D03*
X147880000Y-104040000D03*
X145340000Y-104040000D03*
D21*
X168537341Y-116539200D03*
X168537341Y-113999200D03*
X171077341Y-116539200D03*
X173617341Y-113999200D03*
X171077341Y-113999200D03*
X173617341Y-111459200D03*
X171077341Y-111459200D03*
X173617341Y-108919200D03*
X171077341Y-106379200D03*
X171077341Y-108919200D03*
X168537341Y-106379200D03*
X168537341Y-108919200D03*
X165997341Y-106379200D03*
X163457341Y-108919200D03*
X165997341Y-108919200D03*
X163457341Y-111459200D03*
X165997341Y-111459200D03*
X163457341Y-113999200D03*
X165997341Y-116539200D03*
X165997341Y-113999200D03*
D22*
X137000000Y-103000000D03*
X186000000Y-103000000D03*
X137000000Y-131000000D03*
X186000000Y-131000000D03*
D23*
X158500000Y-130979472D03*
X157880000Y-128964000D03*
X168490000Y-118620000D03*
D24*
X177890000Y-113700000D03*
X159218370Y-112181630D03*
X159903371Y-113866629D03*
X158990000Y-109180000D03*
X156720000Y-109760000D03*
D25*
X150420000Y-119280000D02*
X150420000Y-104040000D01*
X169786972Y-123119536D02*
X169786972Y-122460000D01*
X169786972Y-122460000D02*
X169786972Y-115248831D01*
X187000000Y-122700000D02*
X185584000Y-122700000D01*
X185584000Y-122700000D02*
X185344000Y-122460000D01*
X185344000Y-122460000D02*
X169786972Y-122460000D01*
X161800000Y-130260000D02*
X160810051Y-130260000D01*
X160810051Y-130260000D02*
X158334050Y-132736001D01*
X158334050Y-132736001D02*
X150043999Y-132736001D01*
X149855999Y-132548001D02*
X149855999Y-132335999D01*
X150043999Y-132736001D02*
X149855999Y-132548001D01*
X149855999Y-132335999D02*
X148840000Y-131320000D01*
X148950000Y-126060000D02*
X148950000Y-120750000D01*
X148950000Y-120750000D02*
X150420000Y-119280000D01*
X148840000Y-131320000D02*
X148840000Y-126170000D01*
X148840000Y-126170000D02*
X148950000Y-126060000D01*
X161800000Y-130260000D02*
X164060000Y-130260000D01*
X164060000Y-130260000D02*
X169330000Y-124990000D01*
X168537341Y-113999200D02*
X169786972Y-112749569D01*
X172767712Y-109768829D02*
X173617341Y-108919200D01*
X169786972Y-112749569D02*
X169786972Y-110900114D01*
X169786972Y-110900114D02*
X170477517Y-110209569D01*
X170477517Y-110209569D02*
X172326972Y-110209569D01*
X172326972Y-110209569D02*
X172767712Y-109768829D01*
X169330000Y-124990000D02*
X169330000Y-123576508D01*
X169330000Y-123576508D02*
X169786972Y-123119536D01*
X169786972Y-115248831D02*
X169386970Y-114848829D01*
X169386970Y-114848829D02*
X168537341Y-113999200D01*
D26*
G36*
X182496562Y-100654653D02*
X181865720Y-102173889D01*
X181864284Y-103818894D01*
X182492474Y-105339229D01*
X183654653Y-106503438D01*
X185173889Y-107134280D01*
X186818894Y-107135716D01*
X188339229Y-106507526D01*
X188873000Y-105974686D01*
X188873000Y-128025137D01*
X188345347Y-127496562D01*
X186826111Y-126865720D01*
X185181106Y-126864284D01*
X183660771Y-127492474D01*
X182496562Y-128654653D01*
X181865720Y-130173889D01*
X181864284Y-131818894D01*
X182492474Y-133339229D01*
X183025314Y-133873000D01*
X139974863Y-133873000D01*
X140503438Y-133345347D01*
X141134280Y-131826111D01*
X141134387Y-131702946D01*
X147234017Y-131702946D01*
X147502812Y-132288379D01*
X147975182Y-132726385D01*
X148457056Y-132925975D01*
X148713000Y-132806836D01*
X148713000Y-131447000D01*
X147352633Y-131447000D01*
X147234017Y-131702946D01*
X141134387Y-131702946D01*
X141135055Y-130937054D01*
X147234017Y-130937054D01*
X147352633Y-131193000D01*
X148713000Y-131193000D01*
X148713000Y-129833164D01*
X148967000Y-129833164D01*
X148967000Y-131193000D01*
X148987000Y-131193000D01*
X148987000Y-131447000D01*
X148967000Y-131447000D01*
X148967000Y-132806836D01*
X149222944Y-132925975D01*
X149704818Y-132726385D01*
X149802398Y-132635903D01*
X149899910Y-132787441D01*
X150112110Y-132932431D01*
X150364000Y-132983440D01*
X152396000Y-132983440D01*
X152631317Y-132939162D01*
X152847441Y-132800090D01*
X152992431Y-132587890D01*
X153043440Y-132336000D01*
X153043440Y-131195275D01*
X161044331Y-131195275D01*
X161106169Y-131431042D01*
X161607122Y-131607419D01*
X162137440Y-131578664D01*
X162493831Y-131431042D01*
X162555669Y-131195275D01*
X161800000Y-130439605D01*
X161044331Y-131195275D01*
X153043440Y-131195275D01*
X153043440Y-130304000D01*
X152999162Y-130068683D01*
X152860090Y-129852559D01*
X152647890Y-129707569D01*
X152396000Y-129656560D01*
X150364000Y-129656560D01*
X150128683Y-129700838D01*
X149912559Y-129839910D01*
X149801160Y-130002948D01*
X149704818Y-129913615D01*
X149222944Y-129714025D01*
X148967000Y-129833164D01*
X148713000Y-129833164D01*
X148457056Y-129714025D01*
X147975182Y-129913615D01*
X147502812Y-130351621D01*
X147234017Y-130937054D01*
X141135055Y-130937054D01*
X141135716Y-130181106D01*
X140725693Y-129188775D01*
X156744803Y-129188775D01*
X156917233Y-129606086D01*
X157236235Y-129925645D01*
X157653244Y-130098803D01*
X158104775Y-130099197D01*
X158182402Y-130067122D01*
X160452581Y-130067122D01*
X160481336Y-130597440D01*
X160628958Y-130953831D01*
X160864725Y-131015669D01*
X161620395Y-130260000D01*
X161979605Y-130260000D01*
X162735275Y-131015669D01*
X162971042Y-130953831D01*
X163147419Y-130452878D01*
X163118664Y-129922560D01*
X162971042Y-129566169D01*
X162735275Y-129504331D01*
X161979605Y-130260000D01*
X161620395Y-130260000D01*
X160864725Y-129504331D01*
X160628958Y-129566169D01*
X160452581Y-130067122D01*
X158182402Y-130067122D01*
X158522086Y-129926767D01*
X158841645Y-129607765D01*
X158959173Y-129324725D01*
X161044331Y-129324725D01*
X161800000Y-130080395D01*
X162386700Y-129493694D01*
X167715226Y-129493694D01*
X167963538Y-130094655D01*
X168422927Y-130554846D01*
X169023453Y-130804206D01*
X169673694Y-130804774D01*
X170274655Y-130556462D01*
X170734846Y-130097073D01*
X170984206Y-129496547D01*
X170984208Y-129493694D01*
X177875226Y-129493694D01*
X178123538Y-130094655D01*
X178582927Y-130554846D01*
X179183453Y-130804206D01*
X179833694Y-130804774D01*
X180434655Y-130556462D01*
X180894846Y-130097073D01*
X181144206Y-129496547D01*
X181144774Y-128846306D01*
X180896462Y-128245345D01*
X180437073Y-127785154D01*
X179836547Y-127535794D01*
X179186306Y-127535226D01*
X178585345Y-127783538D01*
X178125154Y-128242927D01*
X177875794Y-128843453D01*
X177875226Y-129493694D01*
X170984208Y-129493694D01*
X170984774Y-128846306D01*
X170736462Y-128245345D01*
X170277073Y-127785154D01*
X169676547Y-127535794D01*
X169026306Y-127535226D01*
X168425345Y-127783538D01*
X167965154Y-128242927D01*
X167715794Y-128843453D01*
X167715226Y-129493694D01*
X162386700Y-129493694D01*
X162555669Y-129324725D01*
X162493831Y-129088958D01*
X161992878Y-128912581D01*
X161462560Y-128941336D01*
X161106169Y-129088958D01*
X161044331Y-129324725D01*
X158959173Y-129324725D01*
X159014803Y-129190756D01*
X159015197Y-128739225D01*
X158842767Y-128321914D01*
X158523765Y-128002355D01*
X158106756Y-127829197D01*
X157655225Y-127828803D01*
X157237914Y-128001233D01*
X156918355Y-128320235D01*
X156745197Y-128737244D01*
X156744803Y-129188775D01*
X140725693Y-129188775D01*
X140507526Y-128660771D01*
X139345347Y-127496562D01*
X137826111Y-126865720D01*
X136181106Y-126864284D01*
X134660771Y-127492474D01*
X134127000Y-128025314D01*
X134127000Y-125879078D01*
X147652378Y-125879078D01*
X147681917Y-126389428D01*
X147820389Y-126723729D01*
X148050984Y-126779410D01*
X148770395Y-126060000D01*
X148050984Y-125340590D01*
X147820389Y-125396271D01*
X147652378Y-125879078D01*
X134127000Y-125879078D01*
X134127000Y-125160984D01*
X148230590Y-125160984D01*
X148950000Y-125880395D01*
X148964142Y-125866252D01*
X149143748Y-126045858D01*
X149129605Y-126060000D01*
X149143748Y-126074142D01*
X148964142Y-126253748D01*
X148950000Y-126239605D01*
X148230590Y-126959016D01*
X148286271Y-127189611D01*
X148769078Y-127357622D01*
X149279428Y-127328083D01*
X149613729Y-127189611D01*
X149669410Y-126959018D01*
X149771072Y-127060680D01*
X149835910Y-127161441D01*
X150048110Y-127306431D01*
X150300000Y-127357440D01*
X151600000Y-127357440D01*
X151835317Y-127313162D01*
X152051441Y-127174090D01*
X152196431Y-126961890D01*
X152247440Y-126710000D01*
X152247440Y-125410000D01*
X152203162Y-125174683D01*
X152064090Y-124958559D01*
X151851890Y-124813569D01*
X151600000Y-124762560D01*
X150300000Y-124762560D01*
X150064683Y-124806838D01*
X149848559Y-124945910D01*
X149771063Y-125059329D01*
X149669410Y-125160982D01*
X149613729Y-124930389D01*
X149130922Y-124762378D01*
X148620572Y-124791917D01*
X148286271Y-124930389D01*
X148230590Y-125160984D01*
X134127000Y-125160984D01*
X134127000Y-124560000D01*
X160452560Y-124560000D01*
X160452560Y-125960000D01*
X160496838Y-126195317D01*
X160635910Y-126411441D01*
X160848110Y-126556431D01*
X161100000Y-126607440D01*
X162500000Y-126607440D01*
X162735317Y-126563162D01*
X162951441Y-126424090D01*
X163096431Y-126211890D01*
X163110551Y-126142163D01*
X168357443Y-126142163D01*
X168456042Y-126408965D01*
X169065582Y-126635401D01*
X169715377Y-126611341D01*
X170203958Y-126408965D01*
X170302557Y-126142163D01*
X169330000Y-125169605D01*
X168357443Y-126142163D01*
X163110551Y-126142163D01*
X163147440Y-125960000D01*
X163147440Y-124725582D01*
X167684599Y-124725582D01*
X167708659Y-125375377D01*
X167911035Y-125863958D01*
X168177837Y-125962557D01*
X169150395Y-124990000D01*
X169509605Y-124990000D01*
X170482163Y-125962557D01*
X170748965Y-125863958D01*
X170953380Y-125313694D01*
X177855226Y-125313694D01*
X178103538Y-125914655D01*
X178562927Y-126374846D01*
X179163453Y-126624206D01*
X179813694Y-126624774D01*
X180414655Y-126376462D01*
X180874846Y-125917073D01*
X181124206Y-125316547D01*
X181124774Y-124666306D01*
X180876462Y-124065345D01*
X180417073Y-123605154D01*
X179816547Y-123355794D01*
X179166306Y-123355226D01*
X178565345Y-123603538D01*
X178105154Y-124062927D01*
X177855794Y-124663453D01*
X177855226Y-125313694D01*
X170953380Y-125313694D01*
X170975401Y-125254418D01*
X170951341Y-124604623D01*
X170748965Y-124116042D01*
X170482163Y-124017443D01*
X169509605Y-124990000D01*
X169150395Y-124990000D01*
X168177837Y-124017443D01*
X167911035Y-124116042D01*
X167684599Y-124725582D01*
X163147440Y-124725582D01*
X163147440Y-124560000D01*
X163103162Y-124324683D01*
X162964090Y-124108559D01*
X162751890Y-123963569D01*
X162500000Y-123912560D01*
X161100000Y-123912560D01*
X160864683Y-123956838D01*
X160648559Y-124095910D01*
X160503569Y-124308110D01*
X160452560Y-124560000D01*
X134127000Y-124560000D01*
X134127000Y-123837837D01*
X168357443Y-123837837D01*
X169330000Y-124810395D01*
X170302557Y-123837837D01*
X170203958Y-123571035D01*
X169594418Y-123344599D01*
X168944623Y-123368659D01*
X168456042Y-123571035D01*
X168357443Y-123837837D01*
X134127000Y-123837837D01*
X134127000Y-123059026D01*
X185392642Y-123059026D01*
X185395291Y-123074791D01*
X185649268Y-123602036D01*
X186085680Y-123991954D01*
X186638087Y-124185184D01*
X186873000Y-124040924D01*
X186873000Y-122827000D01*
X187127000Y-122827000D01*
X187127000Y-124040924D01*
X187361913Y-124185184D01*
X187914320Y-123991954D01*
X188350732Y-123602036D01*
X188604709Y-123074791D01*
X188607358Y-123059026D01*
X188486217Y-122827000D01*
X187127000Y-122827000D01*
X186873000Y-122827000D01*
X185513783Y-122827000D01*
X185392642Y-123059026D01*
X134127000Y-123059026D01*
X134127000Y-118742836D01*
X143943000Y-118742836D01*
X143943000Y-119817164D01*
X144049340Y-120351773D01*
X144352172Y-120804992D01*
X144805391Y-121107824D01*
X145340000Y-121214164D01*
X145874609Y-121107824D01*
X146327828Y-120804992D01*
X146610000Y-120382693D01*
X146892172Y-120804992D01*
X147345391Y-121107824D01*
X147880000Y-121214164D01*
X148414609Y-121107824D01*
X148867828Y-120804992D01*
X149159298Y-120368778D01*
X149177941Y-120431941D01*
X149521974Y-120857630D01*
X150002723Y-121119260D01*
X150076930Y-121134220D01*
X150293000Y-121011720D01*
X150293000Y-119407000D01*
X150273000Y-119407000D01*
X150273000Y-119153000D01*
X150293000Y-119153000D01*
X150293000Y-117548280D01*
X150547000Y-117548280D01*
X150547000Y-119153000D01*
X150567000Y-119153000D01*
X150567000Y-119407000D01*
X150547000Y-119407000D01*
X150547000Y-121011720D01*
X150763070Y-121134220D01*
X150837277Y-121119260D01*
X151318026Y-120857630D01*
X151662059Y-120431941D01*
X151680702Y-120368778D01*
X151972172Y-120804992D01*
X152425391Y-121107824D01*
X152960000Y-121214164D01*
X153494609Y-121107824D01*
X153947828Y-120804992D01*
X154230000Y-120382693D01*
X154512172Y-120804992D01*
X154965391Y-121107824D01*
X155500000Y-121214164D01*
X156034609Y-121107824D01*
X156487828Y-120804992D01*
X156790660Y-120351773D01*
X156897000Y-119817164D01*
X156897000Y-118742836D01*
X156790660Y-118208227D01*
X156487828Y-117755008D01*
X156034609Y-117452176D01*
X155500000Y-117345836D01*
X154965391Y-117452176D01*
X154512172Y-117755008D01*
X154230000Y-118177307D01*
X153947828Y-117755008D01*
X153494609Y-117452176D01*
X152960000Y-117345836D01*
X152425391Y-117452176D01*
X151972172Y-117755008D01*
X151680702Y-118191222D01*
X151662059Y-118128059D01*
X151318026Y-117702370D01*
X150837277Y-117440740D01*
X150763070Y-117425780D01*
X150547000Y-117548280D01*
X150293000Y-117548280D01*
X150076930Y-117425780D01*
X150002723Y-117440740D01*
X149521974Y-117702370D01*
X149177941Y-118128059D01*
X149159298Y-118191222D01*
X148867828Y-117755008D01*
X148414609Y-117452176D01*
X147880000Y-117345836D01*
X147345391Y-117452176D01*
X146892172Y-117755008D01*
X146610000Y-118177307D01*
X146327828Y-117755008D01*
X145874609Y-117452176D01*
X145340000Y-117345836D01*
X144805391Y-117452176D01*
X144352172Y-117755008D01*
X144049340Y-118208227D01*
X143943000Y-118742836D01*
X134127000Y-118742836D01*
X134127000Y-112366797D01*
X158283208Y-112366797D01*
X158425253Y-112710573D01*
X158688043Y-112973822D01*
X159031571Y-113116468D01*
X159331136Y-113116729D01*
X159111179Y-113336302D01*
X158968533Y-113679830D01*
X158968209Y-114051796D01*
X159110254Y-114395572D01*
X159373044Y-114658821D01*
X159716572Y-114801467D01*
X160088538Y-114801791D01*
X160432314Y-114659746D01*
X160695563Y-114396956D01*
X160838209Y-114053428D01*
X160838533Y-113681462D01*
X160696488Y-113337686D01*
X160433698Y-113074437D01*
X160090170Y-112931791D01*
X159790605Y-112931530D01*
X160010562Y-112711957D01*
X160153208Y-112368429D01*
X160153532Y-111996463D01*
X160011487Y-111652687D01*
X159748697Y-111389438D01*
X159405169Y-111246792D01*
X159033203Y-111246468D01*
X158689427Y-111388513D01*
X158426178Y-111651303D01*
X158283532Y-111994831D01*
X158283208Y-112366797D01*
X134127000Y-112366797D01*
X134127000Y-109945167D01*
X155784838Y-109945167D01*
X155926883Y-110288943D01*
X156189673Y-110552192D01*
X156533201Y-110694838D01*
X156905167Y-110695162D01*
X157248943Y-110553117D01*
X157512192Y-110290327D01*
X157654838Y-109946799D01*
X157655162Y-109574833D01*
X157568530Y-109365167D01*
X158054838Y-109365167D01*
X158196883Y-109708943D01*
X158459673Y-109972192D01*
X158803201Y-110114838D01*
X159175167Y-110115162D01*
X159518943Y-109973117D01*
X159782192Y-109710327D01*
X159924838Y-109366799D01*
X159924971Y-109213216D01*
X161972453Y-109213216D01*
X162197999Y-109759077D01*
X162615267Y-110177074D01*
X162643865Y-110188949D01*
X162617464Y-110199858D01*
X162199467Y-110617126D01*
X161972969Y-111162593D01*
X161972453Y-111753216D01*
X162197999Y-112299077D01*
X162615267Y-112717074D01*
X162643865Y-112728949D01*
X162617464Y-112739858D01*
X162199467Y-113157126D01*
X161972969Y-113702593D01*
X161972453Y-114293216D01*
X162197999Y-114839077D01*
X162615267Y-115257074D01*
X163160734Y-115483572D01*
X163751357Y-115484088D01*
X164297218Y-115258542D01*
X164715215Y-114841274D01*
X164727090Y-114812676D01*
X164737999Y-114839077D01*
X165155267Y-115257074D01*
X165183865Y-115268949D01*
X165157464Y-115279858D01*
X164739467Y-115697126D01*
X164512969Y-116242593D01*
X164512453Y-116833216D01*
X164737999Y-117379077D01*
X165155267Y-117797074D01*
X165700734Y-118023572D01*
X166291357Y-118024088D01*
X166837218Y-117798542D01*
X167255215Y-117381274D01*
X167267090Y-117352676D01*
X167277999Y-117379077D01*
X167695267Y-117797074D01*
X167704139Y-117800758D01*
X167528355Y-117976235D01*
X167355197Y-118393244D01*
X167354803Y-118844775D01*
X167527233Y-119262086D01*
X167846235Y-119581645D01*
X168263244Y-119754803D01*
X168714775Y-119755197D01*
X169132086Y-119582767D01*
X169451645Y-119263765D01*
X169624803Y-118846756D01*
X169625197Y-118395225D01*
X169452767Y-117977914D01*
X169303935Y-117828822D01*
X169377218Y-117798542D01*
X169795215Y-117381274D01*
X169807090Y-117352676D01*
X169817999Y-117379077D01*
X170235267Y-117797074D01*
X170780734Y-118023572D01*
X171371357Y-118024088D01*
X171917218Y-117798542D01*
X172335215Y-117381274D01*
X172561713Y-116835807D01*
X172562229Y-116245184D01*
X172336683Y-115699323D01*
X171919415Y-115281326D01*
X171890817Y-115269451D01*
X171917218Y-115258542D01*
X172335215Y-114841274D01*
X172347090Y-114812676D01*
X172357999Y-114839077D01*
X172775267Y-115257074D01*
X173320734Y-115483572D01*
X173911357Y-115484088D01*
X174457218Y-115258542D01*
X174875215Y-114841274D01*
X175101713Y-114295807D01*
X175102071Y-113885167D01*
X176954838Y-113885167D01*
X177096883Y-114228943D01*
X177359673Y-114492192D01*
X177703201Y-114634838D01*
X178075167Y-114635162D01*
X178418943Y-114493117D01*
X178682192Y-114230327D01*
X178824838Y-113886799D01*
X178825162Y-113514833D01*
X178683117Y-113171057D01*
X178420327Y-112907808D01*
X178076799Y-112765162D01*
X177704833Y-112764838D01*
X177361057Y-112906883D01*
X177097808Y-113169673D01*
X176955162Y-113513201D01*
X176954838Y-113885167D01*
X175102071Y-113885167D01*
X175102229Y-113705184D01*
X174876683Y-113159323D01*
X174459415Y-112741326D01*
X174430817Y-112729451D01*
X174457218Y-112718542D01*
X174636071Y-112540000D01*
X185316655Y-112540000D01*
X185430729Y-113113489D01*
X185755585Y-113599670D01*
X186070366Y-113810000D01*
X185755585Y-114020330D01*
X185430729Y-114506511D01*
X185316655Y-115080000D01*
X185430729Y-115653489D01*
X185755585Y-116139670D01*
X186070366Y-116350000D01*
X185755585Y-116560330D01*
X185430729Y-117046511D01*
X185316655Y-117620000D01*
X185430729Y-118193489D01*
X185755585Y-118679670D01*
X186070366Y-118890000D01*
X185755585Y-119100330D01*
X185430729Y-119586511D01*
X185316655Y-120160000D01*
X185430729Y-120733489D01*
X185755585Y-121219670D01*
X186065069Y-121426461D01*
X185649268Y-121797964D01*
X185395291Y-122325209D01*
X185392642Y-122340974D01*
X185513783Y-122573000D01*
X186873000Y-122573000D01*
X186873000Y-122553000D01*
X187127000Y-122553000D01*
X187127000Y-122573000D01*
X188486217Y-122573000D01*
X188607358Y-122340974D01*
X188604709Y-122325209D01*
X188350732Y-121797964D01*
X187934931Y-121426461D01*
X188244415Y-121219670D01*
X188569271Y-120733489D01*
X188683345Y-120160000D01*
X188569271Y-119586511D01*
X188244415Y-119100330D01*
X187929634Y-118890000D01*
X188244415Y-118679670D01*
X188569271Y-118193489D01*
X188683345Y-117620000D01*
X188569271Y-117046511D01*
X188244415Y-116560330D01*
X187929634Y-116350000D01*
X188244415Y-116139670D01*
X188569271Y-115653489D01*
X188683345Y-115080000D01*
X188569271Y-114506511D01*
X188244415Y-114020330D01*
X187929634Y-113810000D01*
X188244415Y-113599670D01*
X188569271Y-113113489D01*
X188683345Y-112540000D01*
X188569271Y-111966511D01*
X188244415Y-111480330D01*
X188230087Y-111470757D01*
X188251317Y-111466762D01*
X188467441Y-111327690D01*
X188612431Y-111115490D01*
X188663440Y-110863600D01*
X188663440Y-109136400D01*
X188619162Y-108901083D01*
X188480090Y-108684959D01*
X188267890Y-108539969D01*
X188016000Y-108488960D01*
X185984000Y-108488960D01*
X185748683Y-108533238D01*
X185532559Y-108672310D01*
X185387569Y-108884510D01*
X185336560Y-109136400D01*
X185336560Y-110863600D01*
X185380838Y-111098917D01*
X185519910Y-111315041D01*
X185732110Y-111460031D01*
X185773439Y-111468400D01*
X185755585Y-111480330D01*
X185430729Y-111966511D01*
X185316655Y-112540000D01*
X174636071Y-112540000D01*
X174875215Y-112301274D01*
X175101713Y-111755807D01*
X175102229Y-111165184D01*
X174876683Y-110619323D01*
X174459415Y-110201326D01*
X174411630Y-110181484D01*
X174481426Y-109962890D01*
X173617341Y-109098805D01*
X172753256Y-109962890D01*
X172822921Y-110181075D01*
X172777464Y-110199858D01*
X172359467Y-110617126D01*
X172347592Y-110645724D01*
X172336683Y-110619323D01*
X171919415Y-110201326D01*
X171890817Y-110189451D01*
X171917218Y-110178542D01*
X172335215Y-109761274D01*
X172355057Y-109713489D01*
X172573651Y-109783285D01*
X173437736Y-108919200D01*
X173796946Y-108919200D01*
X174661031Y-109783285D01*
X174912294Y-109703058D01*
X175113691Y-109147833D01*
X175087282Y-108557801D01*
X174912294Y-108135342D01*
X174661031Y-108055115D01*
X173796946Y-108919200D01*
X173437736Y-108919200D01*
X172573651Y-108055115D01*
X172355466Y-108124780D01*
X172336683Y-108079323D01*
X172133226Y-107875510D01*
X172753256Y-107875510D01*
X173617341Y-108739595D01*
X174481426Y-107875510D01*
X174401199Y-107624247D01*
X173845974Y-107422850D01*
X173255942Y-107449259D01*
X172833483Y-107624247D01*
X172753256Y-107875510D01*
X172133226Y-107875510D01*
X171919415Y-107661326D01*
X171890817Y-107649451D01*
X171917218Y-107638542D01*
X172335215Y-107221274D01*
X172561713Y-106675807D01*
X172562229Y-106085184D01*
X172336683Y-105539323D01*
X171919415Y-105121326D01*
X171373948Y-104894828D01*
X170783325Y-104894312D01*
X170237464Y-105119858D01*
X169819467Y-105537126D01*
X169807592Y-105565724D01*
X169796683Y-105539323D01*
X169379415Y-105121326D01*
X168833948Y-104894828D01*
X168243325Y-104894312D01*
X167697464Y-105119858D01*
X167279467Y-105537126D01*
X167267592Y-105565724D01*
X167256683Y-105539323D01*
X166839415Y-105121326D01*
X166293948Y-104894828D01*
X165703325Y-104894312D01*
X165157464Y-105119858D01*
X164739467Y-105537126D01*
X164512969Y-106082593D01*
X164512453Y-106673216D01*
X164737999Y-107219077D01*
X165155267Y-107637074D01*
X165183865Y-107648949D01*
X165157464Y-107659858D01*
X164739467Y-108077126D01*
X164727592Y-108105724D01*
X164716683Y-108079323D01*
X164299415Y-107661326D01*
X163753948Y-107434828D01*
X163163325Y-107434312D01*
X162617464Y-107659858D01*
X162199467Y-108077126D01*
X161972969Y-108622593D01*
X161972453Y-109213216D01*
X159924971Y-109213216D01*
X159925162Y-108994833D01*
X159783117Y-108651057D01*
X159520327Y-108387808D01*
X159176799Y-108245162D01*
X158804833Y-108244838D01*
X158461057Y-108386883D01*
X158197808Y-108649673D01*
X158055162Y-108993201D01*
X158054838Y-109365167D01*
X157568530Y-109365167D01*
X157513117Y-109231057D01*
X157250327Y-108967808D01*
X156906799Y-108825162D01*
X156534833Y-108824838D01*
X156191057Y-108966883D01*
X155927808Y-109229673D01*
X155785162Y-109573201D01*
X155784838Y-109945167D01*
X134127000Y-109945167D01*
X134127000Y-105974863D01*
X134654653Y-106503438D01*
X136173889Y-107134280D01*
X137818894Y-107135716D01*
X139339229Y-106507526D01*
X140503438Y-105345347D01*
X141134280Y-103826111D01*
X141134562Y-103502836D01*
X143943000Y-103502836D01*
X143943000Y-104577164D01*
X144049340Y-105111773D01*
X144352172Y-105564992D01*
X144805391Y-105867824D01*
X145340000Y-105974164D01*
X145874609Y-105867824D01*
X146327828Y-105564992D01*
X146610000Y-105142693D01*
X146892172Y-105564992D01*
X147345391Y-105867824D01*
X147880000Y-105974164D01*
X148414609Y-105867824D01*
X148867828Y-105564992D01*
X149159298Y-105128778D01*
X149177941Y-105191941D01*
X149521974Y-105617630D01*
X150002723Y-105879260D01*
X150076930Y-105894220D01*
X150293000Y-105771720D01*
X150293000Y-104167000D01*
X150273000Y-104167000D01*
X150273000Y-103913000D01*
X150293000Y-103913000D01*
X150293000Y-102308280D01*
X150547000Y-102308280D01*
X150547000Y-103913000D01*
X150567000Y-103913000D01*
X150567000Y-104167000D01*
X150547000Y-104167000D01*
X150547000Y-105771720D01*
X150763070Y-105894220D01*
X150837277Y-105879260D01*
X151318026Y-105617630D01*
X151662059Y-105191941D01*
X151680702Y-105128778D01*
X151972172Y-105564992D01*
X152425391Y-105867824D01*
X152960000Y-105974164D01*
X153494609Y-105867824D01*
X153947828Y-105564992D01*
X154230000Y-105142693D01*
X154512172Y-105564992D01*
X154965391Y-105867824D01*
X155500000Y-105974164D01*
X156034609Y-105867824D01*
X156487828Y-105564992D01*
X156790660Y-105111773D01*
X156897000Y-104577164D01*
X156897000Y-103502836D01*
X156790660Y-102968227D01*
X156487828Y-102515008D01*
X156034609Y-102212176D01*
X155500000Y-102105836D01*
X154965391Y-102212176D01*
X154512172Y-102515008D01*
X154230000Y-102937307D01*
X153947828Y-102515008D01*
X153494609Y-102212176D01*
X152960000Y-102105836D01*
X152425391Y-102212176D01*
X151972172Y-102515008D01*
X151680702Y-102951222D01*
X151662059Y-102888059D01*
X151318026Y-102462370D01*
X150837277Y-102200740D01*
X150763070Y-102185780D01*
X150547000Y-102308280D01*
X150293000Y-102308280D01*
X150076930Y-102185780D01*
X150002723Y-102200740D01*
X149521974Y-102462370D01*
X149177941Y-102888059D01*
X149159298Y-102951222D01*
X148867828Y-102515008D01*
X148414609Y-102212176D01*
X147880000Y-102105836D01*
X147345391Y-102212176D01*
X146892172Y-102515008D01*
X146610000Y-102937307D01*
X146327828Y-102515008D01*
X145874609Y-102212176D01*
X145340000Y-102105836D01*
X144805391Y-102212176D01*
X144352172Y-102515008D01*
X144049340Y-102968227D01*
X143943000Y-103502836D01*
X141134562Y-103502836D01*
X141135716Y-102181106D01*
X140507526Y-100660771D01*
X139974686Y-100127000D01*
X183025137Y-100127000D01*
X182496562Y-100654653D01*
X182496562Y-100654653D01*
G37*
X182496562Y-100654653D02*
X181865720Y-102173889D01*
X181864284Y-103818894D01*
X182492474Y-105339229D01*
X183654653Y-106503438D01*
X185173889Y-107134280D01*
X186818894Y-107135716D01*
X188339229Y-106507526D01*
X188873000Y-105974686D01*
X188873000Y-128025137D01*
X188345347Y-127496562D01*
X186826111Y-126865720D01*
X185181106Y-126864284D01*
X183660771Y-127492474D01*
X182496562Y-128654653D01*
X181865720Y-130173889D01*
X181864284Y-131818894D01*
X182492474Y-133339229D01*
X183025314Y-133873000D01*
X139974863Y-133873000D01*
X140503438Y-133345347D01*
X141134280Y-131826111D01*
X141134387Y-131702946D01*
X147234017Y-131702946D01*
X147502812Y-132288379D01*
X147975182Y-132726385D01*
X148457056Y-132925975D01*
X148713000Y-132806836D01*
X148713000Y-131447000D01*
X147352633Y-131447000D01*
X147234017Y-131702946D01*
X141134387Y-131702946D01*
X141135055Y-130937054D01*
X147234017Y-130937054D01*
X147352633Y-131193000D01*
X148713000Y-131193000D01*
X148713000Y-129833164D01*
X148967000Y-129833164D01*
X148967000Y-131193000D01*
X148987000Y-131193000D01*
X148987000Y-131447000D01*
X148967000Y-131447000D01*
X148967000Y-132806836D01*
X149222944Y-132925975D01*
X149704818Y-132726385D01*
X149802398Y-132635903D01*
X149899910Y-132787441D01*
X150112110Y-132932431D01*
X150364000Y-132983440D01*
X152396000Y-132983440D01*
X152631317Y-132939162D01*
X152847441Y-132800090D01*
X152992431Y-132587890D01*
X153043440Y-132336000D01*
X153043440Y-131195275D01*
X161044331Y-131195275D01*
X161106169Y-131431042D01*
X161607122Y-131607419D01*
X162137440Y-131578664D01*
X162493831Y-131431042D01*
X162555669Y-131195275D01*
X161800000Y-130439605D01*
X161044331Y-131195275D01*
X153043440Y-131195275D01*
X153043440Y-130304000D01*
X152999162Y-130068683D01*
X152860090Y-129852559D01*
X152647890Y-129707569D01*
X152396000Y-129656560D01*
X150364000Y-129656560D01*
X150128683Y-129700838D01*
X149912559Y-129839910D01*
X149801160Y-130002948D01*
X149704818Y-129913615D01*
X149222944Y-129714025D01*
X148967000Y-129833164D01*
X148713000Y-129833164D01*
X148457056Y-129714025D01*
X147975182Y-129913615D01*
X147502812Y-130351621D01*
X147234017Y-130937054D01*
X141135055Y-130937054D01*
X141135716Y-130181106D01*
X140725693Y-129188775D01*
X156744803Y-129188775D01*
X156917233Y-129606086D01*
X157236235Y-129925645D01*
X157653244Y-130098803D01*
X158104775Y-130099197D01*
X158182402Y-130067122D01*
X160452581Y-130067122D01*
X160481336Y-130597440D01*
X160628958Y-130953831D01*
X160864725Y-131015669D01*
X161620395Y-130260000D01*
X161979605Y-130260000D01*
X162735275Y-131015669D01*
X162971042Y-130953831D01*
X163147419Y-130452878D01*
X163118664Y-129922560D01*
X162971042Y-129566169D01*
X162735275Y-129504331D01*
X161979605Y-130260000D01*
X161620395Y-130260000D01*
X160864725Y-129504331D01*
X160628958Y-129566169D01*
X160452581Y-130067122D01*
X158182402Y-130067122D01*
X158522086Y-129926767D01*
X158841645Y-129607765D01*
X158959173Y-129324725D01*
X161044331Y-129324725D01*
X161800000Y-130080395D01*
X162386700Y-129493694D01*
X167715226Y-129493694D01*
X167963538Y-130094655D01*
X168422927Y-130554846D01*
X169023453Y-130804206D01*
X169673694Y-130804774D01*
X170274655Y-130556462D01*
X170734846Y-130097073D01*
X170984206Y-129496547D01*
X170984208Y-129493694D01*
X177875226Y-129493694D01*
X178123538Y-130094655D01*
X178582927Y-130554846D01*
X179183453Y-130804206D01*
X179833694Y-130804774D01*
X180434655Y-130556462D01*
X180894846Y-130097073D01*
X181144206Y-129496547D01*
X181144774Y-128846306D01*
X180896462Y-128245345D01*
X180437073Y-127785154D01*
X179836547Y-127535794D01*
X179186306Y-127535226D01*
X178585345Y-127783538D01*
X178125154Y-128242927D01*
X177875794Y-128843453D01*
X177875226Y-129493694D01*
X170984208Y-129493694D01*
X170984774Y-128846306D01*
X170736462Y-128245345D01*
X170277073Y-127785154D01*
X169676547Y-127535794D01*
X169026306Y-127535226D01*
X168425345Y-127783538D01*
X167965154Y-128242927D01*
X167715794Y-128843453D01*
X167715226Y-129493694D01*
X162386700Y-129493694D01*
X162555669Y-129324725D01*
X162493831Y-129088958D01*
X161992878Y-128912581D01*
X161462560Y-128941336D01*
X161106169Y-129088958D01*
X161044331Y-129324725D01*
X158959173Y-129324725D01*
X159014803Y-129190756D01*
X159015197Y-128739225D01*
X158842767Y-128321914D01*
X158523765Y-128002355D01*
X158106756Y-127829197D01*
X157655225Y-127828803D01*
X157237914Y-128001233D01*
X156918355Y-128320235D01*
X156745197Y-128737244D01*
X156744803Y-129188775D01*
X140725693Y-129188775D01*
X140507526Y-128660771D01*
X139345347Y-127496562D01*
X137826111Y-126865720D01*
X136181106Y-126864284D01*
X134660771Y-127492474D01*
X134127000Y-128025314D01*
X134127000Y-125879078D01*
X147652378Y-125879078D01*
X147681917Y-126389428D01*
X147820389Y-126723729D01*
X148050984Y-126779410D01*
X148770395Y-126060000D01*
X148050984Y-125340590D01*
X147820389Y-125396271D01*
X147652378Y-125879078D01*
X134127000Y-125879078D01*
X134127000Y-125160984D01*
X148230590Y-125160984D01*
X148950000Y-125880395D01*
X148964142Y-125866252D01*
X149143748Y-126045858D01*
X149129605Y-126060000D01*
X149143748Y-126074142D01*
X148964142Y-126253748D01*
X148950000Y-126239605D01*
X148230590Y-126959016D01*
X148286271Y-127189611D01*
X148769078Y-127357622D01*
X149279428Y-127328083D01*
X149613729Y-127189611D01*
X149669410Y-126959018D01*
X149771072Y-127060680D01*
X149835910Y-127161441D01*
X150048110Y-127306431D01*
X150300000Y-127357440D01*
X151600000Y-127357440D01*
X151835317Y-127313162D01*
X152051441Y-127174090D01*
X152196431Y-126961890D01*
X152247440Y-126710000D01*
X152247440Y-125410000D01*
X152203162Y-125174683D01*
X152064090Y-124958559D01*
X151851890Y-124813569D01*
X151600000Y-124762560D01*
X150300000Y-124762560D01*
X150064683Y-124806838D01*
X149848559Y-124945910D01*
X149771063Y-125059329D01*
X149669410Y-125160982D01*
X149613729Y-124930389D01*
X149130922Y-124762378D01*
X148620572Y-124791917D01*
X148286271Y-124930389D01*
X148230590Y-125160984D01*
X134127000Y-125160984D01*
X134127000Y-124560000D01*
X160452560Y-124560000D01*
X160452560Y-125960000D01*
X160496838Y-126195317D01*
X160635910Y-126411441D01*
X160848110Y-126556431D01*
X161100000Y-126607440D01*
X162500000Y-126607440D01*
X162735317Y-126563162D01*
X162951441Y-126424090D01*
X163096431Y-126211890D01*
X163110551Y-126142163D01*
X168357443Y-126142163D01*
X168456042Y-126408965D01*
X169065582Y-126635401D01*
X169715377Y-126611341D01*
X170203958Y-126408965D01*
X170302557Y-126142163D01*
X169330000Y-125169605D01*
X168357443Y-126142163D01*
X163110551Y-126142163D01*
X163147440Y-125960000D01*
X163147440Y-124725582D01*
X167684599Y-124725582D01*
X167708659Y-125375377D01*
X167911035Y-125863958D01*
X168177837Y-125962557D01*
X169150395Y-124990000D01*
X169509605Y-124990000D01*
X170482163Y-125962557D01*
X170748965Y-125863958D01*
X170953380Y-125313694D01*
X177855226Y-125313694D01*
X178103538Y-125914655D01*
X178562927Y-126374846D01*
X179163453Y-126624206D01*
X179813694Y-126624774D01*
X180414655Y-126376462D01*
X180874846Y-125917073D01*
X181124206Y-125316547D01*
X181124774Y-124666306D01*
X180876462Y-124065345D01*
X180417073Y-123605154D01*
X179816547Y-123355794D01*
X179166306Y-123355226D01*
X178565345Y-123603538D01*
X178105154Y-124062927D01*
X177855794Y-124663453D01*
X177855226Y-125313694D01*
X170953380Y-125313694D01*
X170975401Y-125254418D01*
X170951341Y-124604623D01*
X170748965Y-124116042D01*
X170482163Y-124017443D01*
X169509605Y-124990000D01*
X169150395Y-124990000D01*
X168177837Y-124017443D01*
X167911035Y-124116042D01*
X167684599Y-124725582D01*
X163147440Y-124725582D01*
X163147440Y-124560000D01*
X163103162Y-124324683D01*
X162964090Y-124108559D01*
X162751890Y-123963569D01*
X162500000Y-123912560D01*
X161100000Y-123912560D01*
X160864683Y-123956838D01*
X160648559Y-124095910D01*
X160503569Y-124308110D01*
X160452560Y-124560000D01*
X134127000Y-124560000D01*
X134127000Y-123837837D01*
X168357443Y-123837837D01*
X169330000Y-124810395D01*
X170302557Y-123837837D01*
X170203958Y-123571035D01*
X169594418Y-123344599D01*
X168944623Y-123368659D01*
X168456042Y-123571035D01*
X168357443Y-123837837D01*
X134127000Y-123837837D01*
X134127000Y-123059026D01*
X185392642Y-123059026D01*
X185395291Y-123074791D01*
X185649268Y-123602036D01*
X186085680Y-123991954D01*
X186638087Y-124185184D01*
X186873000Y-124040924D01*
X186873000Y-122827000D01*
X187127000Y-122827000D01*
X187127000Y-124040924D01*
X187361913Y-124185184D01*
X187914320Y-123991954D01*
X188350732Y-123602036D01*
X188604709Y-123074791D01*
X188607358Y-123059026D01*
X188486217Y-122827000D01*
X187127000Y-122827000D01*
X186873000Y-122827000D01*
X185513783Y-122827000D01*
X185392642Y-123059026D01*
X134127000Y-123059026D01*
X134127000Y-118742836D01*
X143943000Y-118742836D01*
X143943000Y-119817164D01*
X144049340Y-120351773D01*
X144352172Y-120804992D01*
X144805391Y-121107824D01*
X145340000Y-121214164D01*
X145874609Y-121107824D01*
X146327828Y-120804992D01*
X146610000Y-120382693D01*
X146892172Y-120804992D01*
X147345391Y-121107824D01*
X147880000Y-121214164D01*
X148414609Y-121107824D01*
X148867828Y-120804992D01*
X149159298Y-120368778D01*
X149177941Y-120431941D01*
X149521974Y-120857630D01*
X150002723Y-121119260D01*
X150076930Y-121134220D01*
X150293000Y-121011720D01*
X150293000Y-119407000D01*
X150273000Y-119407000D01*
X150273000Y-119153000D01*
X150293000Y-119153000D01*
X150293000Y-117548280D01*
X150547000Y-117548280D01*
X150547000Y-119153000D01*
X150567000Y-119153000D01*
X150567000Y-119407000D01*
X150547000Y-119407000D01*
X150547000Y-121011720D01*
X150763070Y-121134220D01*
X150837277Y-121119260D01*
X151318026Y-120857630D01*
X151662059Y-120431941D01*
X151680702Y-120368778D01*
X151972172Y-120804992D01*
X152425391Y-121107824D01*
X152960000Y-121214164D01*
X153494609Y-121107824D01*
X153947828Y-120804992D01*
X154230000Y-120382693D01*
X154512172Y-120804992D01*
X154965391Y-121107824D01*
X155500000Y-121214164D01*
X156034609Y-121107824D01*
X156487828Y-120804992D01*
X156790660Y-120351773D01*
X156897000Y-119817164D01*
X156897000Y-118742836D01*
X156790660Y-118208227D01*
X156487828Y-117755008D01*
X156034609Y-117452176D01*
X155500000Y-117345836D01*
X154965391Y-117452176D01*
X154512172Y-117755008D01*
X154230000Y-118177307D01*
X153947828Y-117755008D01*
X153494609Y-117452176D01*
X152960000Y-117345836D01*
X152425391Y-117452176D01*
X151972172Y-117755008D01*
X151680702Y-118191222D01*
X151662059Y-118128059D01*
X151318026Y-117702370D01*
X150837277Y-117440740D01*
X150763070Y-117425780D01*
X150547000Y-117548280D01*
X150293000Y-117548280D01*
X150076930Y-117425780D01*
X150002723Y-117440740D01*
X149521974Y-117702370D01*
X149177941Y-118128059D01*
X149159298Y-118191222D01*
X148867828Y-117755008D01*
X148414609Y-117452176D01*
X147880000Y-117345836D01*
X147345391Y-117452176D01*
X146892172Y-117755008D01*
X146610000Y-118177307D01*
X146327828Y-117755008D01*
X145874609Y-117452176D01*
X145340000Y-117345836D01*
X144805391Y-117452176D01*
X144352172Y-117755008D01*
X144049340Y-118208227D01*
X143943000Y-118742836D01*
X134127000Y-118742836D01*
X134127000Y-112366797D01*
X158283208Y-112366797D01*
X158425253Y-112710573D01*
X158688043Y-112973822D01*
X159031571Y-113116468D01*
X159331136Y-113116729D01*
X159111179Y-113336302D01*
X158968533Y-113679830D01*
X158968209Y-114051796D01*
X159110254Y-114395572D01*
X159373044Y-114658821D01*
X159716572Y-114801467D01*
X160088538Y-114801791D01*
X160432314Y-114659746D01*
X160695563Y-114396956D01*
X160838209Y-114053428D01*
X160838533Y-113681462D01*
X160696488Y-113337686D01*
X160433698Y-113074437D01*
X160090170Y-112931791D01*
X159790605Y-112931530D01*
X160010562Y-112711957D01*
X160153208Y-112368429D01*
X160153532Y-111996463D01*
X160011487Y-111652687D01*
X159748697Y-111389438D01*
X159405169Y-111246792D01*
X159033203Y-111246468D01*
X158689427Y-111388513D01*
X158426178Y-111651303D01*
X158283532Y-111994831D01*
X158283208Y-112366797D01*
X134127000Y-112366797D01*
X134127000Y-109945167D01*
X155784838Y-109945167D01*
X155926883Y-110288943D01*
X156189673Y-110552192D01*
X156533201Y-110694838D01*
X156905167Y-110695162D01*
X157248943Y-110553117D01*
X157512192Y-110290327D01*
X157654838Y-109946799D01*
X157655162Y-109574833D01*
X157568530Y-109365167D01*
X158054838Y-109365167D01*
X158196883Y-109708943D01*
X158459673Y-109972192D01*
X158803201Y-110114838D01*
X159175167Y-110115162D01*
X159518943Y-109973117D01*
X159782192Y-109710327D01*
X159924838Y-109366799D01*
X159924971Y-109213216D01*
X161972453Y-109213216D01*
X162197999Y-109759077D01*
X162615267Y-110177074D01*
X162643865Y-110188949D01*
X162617464Y-110199858D01*
X162199467Y-110617126D01*
X161972969Y-111162593D01*
X161972453Y-111753216D01*
X162197999Y-112299077D01*
X162615267Y-112717074D01*
X162643865Y-112728949D01*
X162617464Y-112739858D01*
X162199467Y-113157126D01*
X161972969Y-113702593D01*
X161972453Y-114293216D01*
X162197999Y-114839077D01*
X162615267Y-115257074D01*
X163160734Y-115483572D01*
X163751357Y-115484088D01*
X164297218Y-115258542D01*
X164715215Y-114841274D01*
X164727090Y-114812676D01*
X164737999Y-114839077D01*
X165155267Y-115257074D01*
X165183865Y-115268949D01*
X165157464Y-115279858D01*
X164739467Y-115697126D01*
X164512969Y-116242593D01*
X164512453Y-116833216D01*
X164737999Y-117379077D01*
X165155267Y-117797074D01*
X165700734Y-118023572D01*
X166291357Y-118024088D01*
X166837218Y-117798542D01*
X167255215Y-117381274D01*
X167267090Y-117352676D01*
X167277999Y-117379077D01*
X167695267Y-117797074D01*
X167704139Y-117800758D01*
X167528355Y-117976235D01*
X167355197Y-118393244D01*
X167354803Y-118844775D01*
X167527233Y-119262086D01*
X167846235Y-119581645D01*
X168263244Y-119754803D01*
X168714775Y-119755197D01*
X169132086Y-119582767D01*
X169451645Y-119263765D01*
X169624803Y-118846756D01*
X169625197Y-118395225D01*
X169452767Y-117977914D01*
X169303935Y-117828822D01*
X169377218Y-117798542D01*
X169795215Y-117381274D01*
X169807090Y-117352676D01*
X169817999Y-117379077D01*
X170235267Y-117797074D01*
X170780734Y-118023572D01*
X171371357Y-118024088D01*
X171917218Y-117798542D01*
X172335215Y-117381274D01*
X172561713Y-116835807D01*
X172562229Y-116245184D01*
X172336683Y-115699323D01*
X171919415Y-115281326D01*
X171890817Y-115269451D01*
X171917218Y-115258542D01*
X172335215Y-114841274D01*
X172347090Y-114812676D01*
X172357999Y-114839077D01*
X172775267Y-115257074D01*
X173320734Y-115483572D01*
X173911357Y-115484088D01*
X174457218Y-115258542D01*
X174875215Y-114841274D01*
X175101713Y-114295807D01*
X175102071Y-113885167D01*
X176954838Y-113885167D01*
X177096883Y-114228943D01*
X177359673Y-114492192D01*
X177703201Y-114634838D01*
X178075167Y-114635162D01*
X178418943Y-114493117D01*
X178682192Y-114230327D01*
X178824838Y-113886799D01*
X178825162Y-113514833D01*
X178683117Y-113171057D01*
X178420327Y-112907808D01*
X178076799Y-112765162D01*
X177704833Y-112764838D01*
X177361057Y-112906883D01*
X177097808Y-113169673D01*
X176955162Y-113513201D01*
X176954838Y-113885167D01*
X175102071Y-113885167D01*
X175102229Y-113705184D01*
X174876683Y-113159323D01*
X174459415Y-112741326D01*
X174430817Y-112729451D01*
X174457218Y-112718542D01*
X174636071Y-112540000D01*
X185316655Y-112540000D01*
X185430729Y-113113489D01*
X185755585Y-113599670D01*
X186070366Y-113810000D01*
X185755585Y-114020330D01*
X185430729Y-114506511D01*
X185316655Y-115080000D01*
X185430729Y-115653489D01*
X185755585Y-116139670D01*
X186070366Y-116350000D01*
X185755585Y-116560330D01*
X185430729Y-117046511D01*
X185316655Y-117620000D01*
X185430729Y-118193489D01*
X185755585Y-118679670D01*
X186070366Y-118890000D01*
X185755585Y-119100330D01*
X185430729Y-119586511D01*
X185316655Y-120160000D01*
X185430729Y-120733489D01*
X185755585Y-121219670D01*
X186065069Y-121426461D01*
X185649268Y-121797964D01*
X185395291Y-122325209D01*
X185392642Y-122340974D01*
X185513783Y-122573000D01*
X186873000Y-122573000D01*
X186873000Y-122553000D01*
X187127000Y-122553000D01*
X187127000Y-122573000D01*
X188486217Y-122573000D01*
X188607358Y-122340974D01*
X188604709Y-122325209D01*
X188350732Y-121797964D01*
X187934931Y-121426461D01*
X188244415Y-121219670D01*
X188569271Y-120733489D01*
X188683345Y-120160000D01*
X188569271Y-119586511D01*
X188244415Y-119100330D01*
X187929634Y-118890000D01*
X188244415Y-118679670D01*
X188569271Y-118193489D01*
X188683345Y-117620000D01*
X188569271Y-117046511D01*
X188244415Y-116560330D01*
X187929634Y-116350000D01*
X188244415Y-116139670D01*
X188569271Y-115653489D01*
X188683345Y-115080000D01*
X188569271Y-114506511D01*
X188244415Y-114020330D01*
X187929634Y-113810000D01*
X188244415Y-113599670D01*
X188569271Y-113113489D01*
X188683345Y-112540000D01*
X188569271Y-111966511D01*
X188244415Y-111480330D01*
X188230087Y-111470757D01*
X188251317Y-111466762D01*
X188467441Y-111327690D01*
X188612431Y-111115490D01*
X188663440Y-110863600D01*
X188663440Y-109136400D01*
X188619162Y-108901083D01*
X188480090Y-108684959D01*
X188267890Y-108539969D01*
X188016000Y-108488960D01*
X185984000Y-108488960D01*
X185748683Y-108533238D01*
X185532559Y-108672310D01*
X185387569Y-108884510D01*
X185336560Y-109136400D01*
X185336560Y-110863600D01*
X185380838Y-111098917D01*
X185519910Y-111315041D01*
X185732110Y-111460031D01*
X185773439Y-111468400D01*
X185755585Y-111480330D01*
X185430729Y-111966511D01*
X185316655Y-112540000D01*
X174636071Y-112540000D01*
X174875215Y-112301274D01*
X175101713Y-111755807D01*
X175102229Y-111165184D01*
X174876683Y-110619323D01*
X174459415Y-110201326D01*
X174411630Y-110181484D01*
X174481426Y-109962890D01*
X173617341Y-109098805D01*
X172753256Y-109962890D01*
X172822921Y-110181075D01*
X172777464Y-110199858D01*
X172359467Y-110617126D01*
X172347592Y-110645724D01*
X172336683Y-110619323D01*
X171919415Y-110201326D01*
X171890817Y-110189451D01*
X171917218Y-110178542D01*
X172335215Y-109761274D01*
X172355057Y-109713489D01*
X172573651Y-109783285D01*
X173437736Y-108919200D01*
X173796946Y-108919200D01*
X174661031Y-109783285D01*
X174912294Y-109703058D01*
X175113691Y-109147833D01*
X175087282Y-108557801D01*
X174912294Y-108135342D01*
X174661031Y-108055115D01*
X173796946Y-108919200D01*
X173437736Y-108919200D01*
X172573651Y-108055115D01*
X172355466Y-108124780D01*
X172336683Y-108079323D01*
X172133226Y-107875510D01*
X172753256Y-107875510D01*
X173617341Y-108739595D01*
X174481426Y-107875510D01*
X174401199Y-107624247D01*
X173845974Y-107422850D01*
X173255942Y-107449259D01*
X172833483Y-107624247D01*
X172753256Y-107875510D01*
X172133226Y-107875510D01*
X171919415Y-107661326D01*
X171890817Y-107649451D01*
X171917218Y-107638542D01*
X172335215Y-107221274D01*
X172561713Y-106675807D01*
X172562229Y-106085184D01*
X172336683Y-105539323D01*
X171919415Y-105121326D01*
X171373948Y-104894828D01*
X170783325Y-104894312D01*
X170237464Y-105119858D01*
X169819467Y-105537126D01*
X169807592Y-105565724D01*
X169796683Y-105539323D01*
X169379415Y-105121326D01*
X168833948Y-104894828D01*
X168243325Y-104894312D01*
X167697464Y-105119858D01*
X167279467Y-105537126D01*
X167267592Y-105565724D01*
X167256683Y-105539323D01*
X166839415Y-105121326D01*
X166293948Y-104894828D01*
X165703325Y-104894312D01*
X165157464Y-105119858D01*
X164739467Y-105537126D01*
X164512969Y-106082593D01*
X164512453Y-106673216D01*
X164737999Y-107219077D01*
X165155267Y-107637074D01*
X165183865Y-107648949D01*
X165157464Y-107659858D01*
X164739467Y-108077126D01*
X164727592Y-108105724D01*
X164716683Y-108079323D01*
X164299415Y-107661326D01*
X163753948Y-107434828D01*
X163163325Y-107434312D01*
X162617464Y-107659858D01*
X162199467Y-108077126D01*
X161972969Y-108622593D01*
X161972453Y-109213216D01*
X159924971Y-109213216D01*
X159925162Y-108994833D01*
X159783117Y-108651057D01*
X159520327Y-108387808D01*
X159176799Y-108245162D01*
X158804833Y-108244838D01*
X158461057Y-108386883D01*
X158197808Y-108649673D01*
X158055162Y-108993201D01*
X158054838Y-109365167D01*
X157568530Y-109365167D01*
X157513117Y-109231057D01*
X157250327Y-108967808D01*
X156906799Y-108825162D01*
X156534833Y-108824838D01*
X156191057Y-108966883D01*
X155927808Y-109229673D01*
X155785162Y-109573201D01*
X155784838Y-109945167D01*
X134127000Y-109945167D01*
X134127000Y-105974863D01*
X134654653Y-106503438D01*
X136173889Y-107134280D01*
X137818894Y-107135716D01*
X139339229Y-106507526D01*
X140503438Y-105345347D01*
X141134280Y-103826111D01*
X141134562Y-103502836D01*
X143943000Y-103502836D01*
X143943000Y-104577164D01*
X144049340Y-105111773D01*
X144352172Y-105564992D01*
X144805391Y-105867824D01*
X145340000Y-105974164D01*
X145874609Y-105867824D01*
X146327828Y-105564992D01*
X146610000Y-105142693D01*
X146892172Y-105564992D01*
X147345391Y-105867824D01*
X147880000Y-105974164D01*
X148414609Y-105867824D01*
X148867828Y-105564992D01*
X149159298Y-105128778D01*
X149177941Y-105191941D01*
X149521974Y-105617630D01*
X150002723Y-105879260D01*
X150076930Y-105894220D01*
X150293000Y-105771720D01*
X150293000Y-104167000D01*
X150273000Y-104167000D01*
X150273000Y-103913000D01*
X150293000Y-103913000D01*
X150293000Y-102308280D01*
X150547000Y-102308280D01*
X150547000Y-103913000D01*
X150567000Y-103913000D01*
X150567000Y-104167000D01*
X150547000Y-104167000D01*
X150547000Y-105771720D01*
X150763070Y-105894220D01*
X150837277Y-105879260D01*
X151318026Y-105617630D01*
X151662059Y-105191941D01*
X151680702Y-105128778D01*
X151972172Y-105564992D01*
X152425391Y-105867824D01*
X152960000Y-105974164D01*
X153494609Y-105867824D01*
X153947828Y-105564992D01*
X154230000Y-105142693D01*
X154512172Y-105564992D01*
X154965391Y-105867824D01*
X155500000Y-105974164D01*
X156034609Y-105867824D01*
X156487828Y-105564992D01*
X156790660Y-105111773D01*
X156897000Y-104577164D01*
X156897000Y-103502836D01*
X156790660Y-102968227D01*
X156487828Y-102515008D01*
X156034609Y-102212176D01*
X155500000Y-102105836D01*
X154965391Y-102212176D01*
X154512172Y-102515008D01*
X154230000Y-102937307D01*
X153947828Y-102515008D01*
X153494609Y-102212176D01*
X152960000Y-102105836D01*
X152425391Y-102212176D01*
X151972172Y-102515008D01*
X151680702Y-102951222D01*
X151662059Y-102888059D01*
X151318026Y-102462370D01*
X150837277Y-102200740D01*
X150763070Y-102185780D01*
X150547000Y-102308280D01*
X150293000Y-102308280D01*
X150076930Y-102185780D01*
X150002723Y-102200740D01*
X149521974Y-102462370D01*
X149177941Y-102888059D01*
X149159298Y-102951222D01*
X148867828Y-102515008D01*
X148414609Y-102212176D01*
X147880000Y-102105836D01*
X147345391Y-102212176D01*
X146892172Y-102515008D01*
X146610000Y-102937307D01*
X146327828Y-102515008D01*
X145874609Y-102212176D01*
X145340000Y-102105836D01*
X144805391Y-102212176D01*
X144352172Y-102515008D01*
X144049340Y-102968227D01*
X143943000Y-103502836D01*
X141134562Y-103502836D01*
X141135716Y-102181106D01*
X140507526Y-100660771D01*
X139974686Y-100127000D01*
X183025137Y-100127000D01*
X182496562Y-100654653D01*
G36*
X169817999Y-109759077D02*
X170235267Y-110177074D01*
X170263865Y-110188949D01*
X170237464Y-110199858D01*
X169819467Y-110617126D01*
X169592969Y-111162593D01*
X169592453Y-111753216D01*
X169817999Y-112299077D01*
X170235267Y-112717074D01*
X170263865Y-112728949D01*
X170237464Y-112739858D01*
X169819467Y-113157126D01*
X169799625Y-113204911D01*
X169581031Y-113135115D01*
X168716946Y-113999200D01*
X169581031Y-114863285D01*
X169799216Y-114793620D01*
X169817999Y-114839077D01*
X170235267Y-115257074D01*
X170263865Y-115268949D01*
X170237464Y-115279858D01*
X169819467Y-115697126D01*
X169807592Y-115725724D01*
X169796683Y-115699323D01*
X169379415Y-115281326D01*
X169331630Y-115261484D01*
X169401426Y-115042890D01*
X168537341Y-114178805D01*
X167673256Y-115042890D01*
X167742921Y-115261075D01*
X167697464Y-115279858D01*
X167279467Y-115697126D01*
X167267592Y-115725724D01*
X167256683Y-115699323D01*
X166839415Y-115281326D01*
X166810817Y-115269451D01*
X166837218Y-115258542D01*
X167255215Y-114841274D01*
X167275057Y-114793489D01*
X167493651Y-114863285D01*
X168357736Y-113999200D01*
X167493651Y-113135115D01*
X167275466Y-113204780D01*
X167256683Y-113159323D01*
X167053226Y-112955510D01*
X167673256Y-112955510D01*
X168537341Y-113819595D01*
X169401426Y-112955510D01*
X169321199Y-112704247D01*
X168765974Y-112502850D01*
X168175942Y-112529259D01*
X167753483Y-112704247D01*
X167673256Y-112955510D01*
X167053226Y-112955510D01*
X166839415Y-112741326D01*
X166810817Y-112729451D01*
X166837218Y-112718542D01*
X167255215Y-112301274D01*
X167481713Y-111755807D01*
X167482229Y-111165184D01*
X167256683Y-110619323D01*
X166839415Y-110201326D01*
X166810817Y-110189451D01*
X166837218Y-110178542D01*
X167255215Y-109761274D01*
X167267090Y-109732676D01*
X167277999Y-109759077D01*
X167695267Y-110177074D01*
X168240734Y-110403572D01*
X168831357Y-110404088D01*
X169377218Y-110178542D01*
X169795215Y-109761274D01*
X169807090Y-109732676D01*
X169817999Y-109759077D01*
X169817999Y-109759077D01*
G37*
X169817999Y-109759077D02*
X170235267Y-110177074D01*
X170263865Y-110188949D01*
X170237464Y-110199858D01*
X169819467Y-110617126D01*
X169592969Y-111162593D01*
X169592453Y-111753216D01*
X169817999Y-112299077D01*
X170235267Y-112717074D01*
X170263865Y-112728949D01*
X170237464Y-112739858D01*
X169819467Y-113157126D01*
X169799625Y-113204911D01*
X169581031Y-113135115D01*
X168716946Y-113999200D01*
X169581031Y-114863285D01*
X169799216Y-114793620D01*
X169817999Y-114839077D01*
X170235267Y-115257074D01*
X170263865Y-115268949D01*
X170237464Y-115279858D01*
X169819467Y-115697126D01*
X169807592Y-115725724D01*
X169796683Y-115699323D01*
X169379415Y-115281326D01*
X169331630Y-115261484D01*
X169401426Y-115042890D01*
X168537341Y-114178805D01*
X167673256Y-115042890D01*
X167742921Y-115261075D01*
X167697464Y-115279858D01*
X167279467Y-115697126D01*
X167267592Y-115725724D01*
X167256683Y-115699323D01*
X166839415Y-115281326D01*
X166810817Y-115269451D01*
X166837218Y-115258542D01*
X167255215Y-114841274D01*
X167275057Y-114793489D01*
X167493651Y-114863285D01*
X168357736Y-113999200D01*
X167493651Y-113135115D01*
X167275466Y-113204780D01*
X167256683Y-113159323D01*
X167053226Y-112955510D01*
X167673256Y-112955510D01*
X168537341Y-113819595D01*
X169401426Y-112955510D01*
X169321199Y-112704247D01*
X168765974Y-112502850D01*
X168175942Y-112529259D01*
X167753483Y-112704247D01*
X167673256Y-112955510D01*
X167053226Y-112955510D01*
X166839415Y-112741326D01*
X166810817Y-112729451D01*
X166837218Y-112718542D01*
X167255215Y-112301274D01*
X167481713Y-111755807D01*
X167482229Y-111165184D01*
X167256683Y-110619323D01*
X166839415Y-110201326D01*
X166810817Y-110189451D01*
X166837218Y-110178542D01*
X167255215Y-109761274D01*
X167267090Y-109732676D01*
X167277999Y-109759077D01*
X167695267Y-110177074D01*
X168240734Y-110403572D01*
X168831357Y-110404088D01*
X169377218Y-110178542D01*
X169795215Y-109761274D01*
X169807090Y-109732676D01*
X169817999Y-109759077D01*
M02*
