G04 #@! TF.FileFunction,Soldermask,Top*
%FSLAX46Y46*%
G04 Gerber Fmt 4.6, Leading zero omitted, Abs format (unit mm)*
G04 Created by KiCad (PCBNEW 4.0.4+e1-6308~48~ubuntu16.04.1-stable) date Fri Oct 14 16:45:37 2016*
%MOMM*%
%LPD*%
G01*
G04 APERTURE LIST*
%ADD10C,0.100000*%
%ADD11R,1.700000X1.700000*%
%ADD12C,1.700000*%
%ADD13R,1.800000X1.800000*%
%ADD14C,1.800000*%
%ADD15R,2.432000X2.127200*%
%ADD16O,2.432000X2.127200*%
%ADD17R,2.432000X2.432000*%
%ADD18O,2.432000X2.432000*%
%ADD19R,0.800000X1.000000*%
%ADD20C,2.398980*%
%ADD21O,1.924000X2.924000*%
%ADD22R,0.857200X1.111200*%
%ADD23C,2.099260*%
%ADD24C,7.400000*%
G04 APERTURE END LIST*
D10*
D11*
X150950000Y-126060000D03*
D12*
X148950000Y-126060000D03*
D13*
X161800000Y-125260000D03*
D14*
X161800000Y-130260000D03*
D15*
X187000000Y-110000000D03*
D16*
X187000000Y-112540000D03*
X187000000Y-115080000D03*
X187000000Y-117620000D03*
X187000000Y-120160000D03*
X187000000Y-122700000D03*
D17*
X151380000Y-131320000D03*
D18*
X148840000Y-131320000D03*
D19*
X179550000Y-110000000D03*
X180450000Y-110000000D03*
X179550000Y-113000000D03*
X180450000Y-113000000D03*
D20*
X169350000Y-129170000D03*
X179510000Y-129170000D03*
X179490000Y-124990000D03*
X169330000Y-124990000D03*
D21*
X145340000Y-119280000D03*
X147880000Y-119280000D03*
X150420000Y-119280000D03*
X152960000Y-119280000D03*
X155500000Y-119280000D03*
X155500000Y-104040000D03*
X152960000Y-104040000D03*
X150420000Y-104040000D03*
X147880000Y-104040000D03*
X145340000Y-104040000D03*
D22*
X156079600Y-130996000D03*
X157400400Y-130996000D03*
X156740000Y-128964000D03*
D23*
X168537341Y-116539200D03*
X168537341Y-113999200D03*
X171077341Y-116539200D03*
X173617341Y-113999200D03*
X171077341Y-113999200D03*
X173617341Y-111459200D03*
X171077341Y-111459200D03*
X173617341Y-108919200D03*
X171077341Y-106379200D03*
X171077341Y-108919200D03*
X168537341Y-106379200D03*
X168537341Y-108919200D03*
X165997341Y-106379200D03*
X163457341Y-108919200D03*
X165997341Y-108919200D03*
X163457341Y-111459200D03*
X165997341Y-111459200D03*
X163457341Y-113999200D03*
X165997341Y-116539200D03*
X165997341Y-113999200D03*
D24*
X137000000Y-103000000D03*
X186000000Y-103000000D03*
X137000000Y-131000000D03*
X186000000Y-131000000D03*
M02*
